<svg width="147" height="48" viewBox="0 0 147 48" fill="none" xmlns="http://www.w3.org/2000/svg">
<rect width="147" height="48" rx="8" fill="#212121"/>
<path fill-rule="evenodd" clip-rule="evenodd" d="M16 24.067C16 30.033 20.333 34.994 26 36V27.333H23V24H26V21.333C26 18.333 27.933 16.667 30.667 16.667C31.533 16.667 32.467 16.8 33.333 16.933V20H31.8C30.333 20 30 20.733 30 21.667V24H33.2L32.667 27.333H30V36C35.667 34.994 40 30.034 40 24.067C40 17.43 34.6 12 28 12C21.4 12 16 17.43 16 24.067Z" fill="#0082DA"/>
<path d="M60.543 24.8486H55.1729V30.5H53.4854V17.7031H61.4131V19.0918H55.1729V23.4688H60.543V24.8486ZM68.752 30.5C68.6582 30.3125 68.582 29.9785 68.5234 29.498C67.7676 30.2832 66.8652 30.6758 65.8164 30.6758C64.8789 30.6758 64.1084 30.4121 63.5049 29.8848C62.9072 29.3516 62.6084 28.6777 62.6084 27.8633C62.6084 26.873 62.9834 26.1055 63.7334 25.5605C64.4893 25.0098 65.5498 24.7344 66.915 24.7344H68.4971V23.9873C68.4971 23.4189 68.3271 22.9678 67.9873 22.6338C67.6475 22.2939 67.1465 22.124 66.4844 22.124C65.9043 22.124 65.418 22.2705 65.0254 22.5635C64.6328 22.8564 64.4365 23.2109 64.4365 23.627H62.8018C62.8018 23.1523 62.9688 22.6953 63.3027 22.2559C63.6426 21.8105 64.0996 21.459 64.6738 21.2012C65.2539 20.9434 65.8896 20.8145 66.5811 20.8145C67.6768 20.8145 68.5352 21.0898 69.1562 21.6406C69.7773 22.1855 70.0996 22.9385 70.123 23.8994V28.2764C70.123 29.1494 70.2344 29.8438 70.457 30.3594V30.5H68.752ZM66.0537 29.2607C66.5635 29.2607 67.0469 29.1289 67.5039 28.8652C67.9609 28.6016 68.292 28.2588 68.4971 27.8369V25.8857H67.2227C65.2305 25.8857 64.2344 26.4688 64.2344 27.6348C64.2344 28.1445 64.4043 28.543 64.7441 28.8301C65.084 29.1172 65.5205 29.2607 66.0537 29.2607ZM76.4863 29.3486C77.0664 29.3486 77.5732 29.1729 78.0068 28.8213C78.4404 28.4697 78.6807 28.0303 78.7275 27.5029H80.2656C80.2363 28.0479 80.0488 28.5664 79.7031 29.0586C79.3574 29.5508 78.8945 29.9434 78.3145 30.2363C77.7402 30.5293 77.1309 30.6758 76.4863 30.6758C75.1914 30.6758 74.1602 30.2451 73.3926 29.3838C72.6309 28.5166 72.25 27.333 72.25 25.833V25.5605C72.25 24.6348 72.4199 23.8115 72.7598 23.0908C73.0996 22.3701 73.5859 21.8105 74.2188 21.4121C74.8574 21.0137 75.6104 20.8145 76.4775 20.8145C77.5439 20.8145 78.4287 21.1338 79.1318 21.7725C79.8408 22.4111 80.2188 23.2402 80.2656 24.2598H78.7275C78.6807 23.6445 78.4463 23.1406 78.0244 22.748C77.6084 22.3496 77.0928 22.1504 76.4775 22.1504C75.6514 22.1504 75.0098 22.4492 74.5527 23.0469C74.1016 23.6387 73.876 24.4971 73.876 25.6221V25.9297C73.876 27.0254 74.1016 27.8691 74.5527 28.4609C75.0039 29.0527 75.6484 29.3486 76.4863 29.3486ZM86.04 30.6758C84.751 30.6758 83.7021 30.2539 82.8936 29.4102C82.085 28.5605 81.6807 27.4268 81.6807 26.0088V25.71C81.6807 24.7666 81.8594 23.9258 82.2168 23.1875C82.5801 22.4434 83.084 21.8633 83.7285 21.4473C84.3789 21.0254 85.082 20.8145 85.8379 20.8145C87.0742 20.8145 88.0352 21.2217 88.7207 22.0361C89.4062 22.8506 89.749 24.0166 89.749 25.5342V26.2109H83.3066C83.3301 27.1484 83.6025 27.9072 84.124 28.4873C84.6514 29.0615 85.3193 29.3486 86.1279 29.3486C86.7021 29.3486 87.1885 29.2314 87.5869 28.9971C87.9854 28.7627 88.334 28.4521 88.6328 28.0654L89.626 28.8389C88.8291 30.0635 87.6338 30.6758 86.04 30.6758ZM85.8379 22.1504C85.1816 22.1504 84.6309 22.3906 84.1855 22.8711C83.7402 23.3457 83.4648 24.0137 83.3594 24.875H88.123V24.752C88.0762 23.9258 87.8535 23.2871 87.4551 22.8359C87.0566 22.3789 86.5176 22.1504 85.8379 22.1504ZM99.6895 25.8506C99.6895 27.3037 99.3555 28.4727 98.6875 29.3574C98.0195 30.2363 97.123 30.6758 95.998 30.6758C94.7969 30.6758 93.8682 30.251 93.2119 29.4014L93.1328 30.5H91.6387V17H93.2646V22.0361C93.9209 21.2217 94.8262 20.8145 95.9805 20.8145C97.1348 20.8145 98.04 21.251 98.6963 22.124C99.3584 22.9971 99.6895 24.1924 99.6895 25.71V25.8506ZM98.0635 25.666C98.0635 24.5586 97.8496 23.7031 97.4219 23.0996C96.9941 22.4961 96.3789 22.1943 95.5762 22.1943C94.5039 22.1943 93.7334 22.6924 93.2646 23.6885V27.8018C93.7627 28.7979 94.5391 29.2959 95.5938 29.2959C96.373 29.2959 96.9795 28.9941 97.4131 28.3906C97.8467 27.7871 98.0635 26.8789 98.0635 25.666ZM101.315 25.6572C101.315 24.7256 101.497 23.8877 101.86 23.1436C102.229 22.3994 102.739 21.8252 103.39 21.4209C104.046 21.0166 104.793 20.8145 105.631 20.8145C106.926 20.8145 107.972 21.2627 108.769 22.1592C109.571 23.0557 109.973 24.248 109.973 25.7363V25.8506C109.973 26.7764 109.794 27.6084 109.437 28.3467C109.085 29.0791 108.578 29.6504 107.916 30.0605C107.26 30.4707 106.504 30.6758 105.648 30.6758C104.359 30.6758 103.313 30.2275 102.511 29.3311C101.714 28.4346 101.315 27.248 101.315 25.7715V25.6572ZM102.95 25.8506C102.95 26.9053 103.193 27.752 103.68 28.3906C104.172 29.0293 104.828 29.3486 105.648 29.3486C106.475 29.3486 107.131 29.0264 107.617 28.3818C108.104 27.7314 108.347 26.8232 108.347 25.6572C108.347 24.6143 108.098 23.7705 107.6 23.126C107.107 22.4756 106.451 22.1504 105.631 22.1504C104.828 22.1504 104.181 22.4697 103.688 23.1084C103.196 23.7471 102.95 24.6611 102.95 25.8506ZM111.581 25.6572C111.581 24.7256 111.763 23.8877 112.126 23.1436C112.495 22.3994 113.005 21.8252 113.655 21.4209C114.312 21.0166 115.059 20.8145 115.896 20.8145C117.191 20.8145 118.237 21.2627 119.034 22.1592C119.837 23.0557 120.238 24.248 120.238 25.7363V25.8506C120.238 26.7764 120.06 27.6084 119.702 28.3467C119.351 29.0791 118.844 29.6504 118.182 30.0605C117.525 30.4707 116.77 30.6758 115.914 30.6758C114.625 30.6758 113.579 30.2275 112.776 29.3311C111.979 28.4346 111.581 27.248 111.581 25.7715V25.6572ZM113.216 25.8506C113.216 26.9053 113.459 27.752 113.945 28.3906C114.438 29.0293 115.094 29.3486 115.914 29.3486C116.74 29.3486 117.396 29.0264 117.883 28.3818C118.369 27.7314 118.612 26.8232 118.612 25.6572C118.612 24.6143 118.363 23.7705 117.865 23.126C117.373 22.4756 116.717 22.1504 115.896 22.1504C115.094 22.1504 114.446 22.4697 113.954 23.1084C113.462 23.7471 113.216 24.6611 113.216 25.8506ZM124.932 26.0967L123.912 27.1602V30.5H122.286V17H123.912V25.165L124.782 24.1191L127.744 20.9902H129.722L126.021 24.9629L130.152 30.5H128.245L124.932 26.0967Z" fill="#FAFAFA"/>
</svg>
