<svg width="150" height="48" viewBox="0 0 150 48" fill="none" xmlns="http://www.w3.org/2000/svg">
<rect width="150" height="48" rx="8" fill="#212121"/>
<path d="M22.0858 35.9151C20.6585 35.8502 19.8831 35.6127 19.3674 35.4115C18.6841 35.1455 18.1969 34.8288 17.6841 34.3166C17.1712 33.8045 16.8538 33.3173 16.5892 32.634C16.388 32.1183 16.1505 31.3429 16.0856 29.9157C16.0143 28.3728 16 27.9099 16 24.0011C16 20.0923 16.0157 19.63 16.0849 18.0858C16.1498 16.6585 16.3887 15.8846 16.5885 15.3674C16.8545 14.6841 17.1719 14.1969 17.6834 13.6834C18.1955 13.1712 18.6827 12.8531 19.3667 12.5885C19.8824 12.3873 20.6578 12.1498 22.0851 12.0849C23.6286 12.0143 24.0923 12 27.9996 12C31.9085 12 32.3707 12.0157 33.9149 12.0849C35.3422 12.1498 36.1161 12.3887 36.6333 12.5885C37.3166 12.8531 37.8038 13.1712 38.3166 13.6834C38.8295 14.1955 39.1455 14.6834 39.4115 15.3667C39.6127 15.8824 39.8502 16.6578 39.9151 18.0851C39.9857 19.6293 40 20.0915 40 24.0004C40 27.9077 39.9857 28.3714 39.9151 29.9157C39.8502 31.3429 39.6113 32.1183 39.4115 32.634C39.1455 33.3173 38.8288 33.8045 38.3166 34.3166C37.8045 34.8288 37.3166 35.1455 36.6333 35.4115C36.1176 35.6127 35.3422 35.8502 33.9149 35.9151C32.3721 35.9857 31.9085 36 27.9996 36C24.0923 36 23.6286 35.9864 22.0858 35.9151" fill="url(#paint0_radial_1:26)"/>
<path d="M22.0858 35.9151C20.6585 35.8502 19.8831 35.6127 19.3674 35.4115C18.6841 35.1455 18.1969 34.8288 17.6841 34.3166C17.1712 33.8045 16.8538 33.3173 16.5892 32.634C16.388 32.1183 16.1505 31.3429 16.0856 29.9157C16.0143 28.3728 16 27.9099 16 24.0011C16 20.0923 16.0157 19.63 16.0849 18.0858C16.1498 16.6585 16.3887 15.8846 16.5885 15.3674C16.8545 14.6841 17.1719 14.1969 17.6834 13.6834C18.1955 13.1712 18.6827 12.8531 19.3667 12.5885C19.8824 12.3873 20.6578 12.1498 22.0851 12.0849C23.6286 12.0143 24.0923 12 27.9996 12C31.9085 12 32.3707 12.0157 33.9149 12.0849C35.3422 12.1498 36.1161 12.3887 36.6333 12.5885C37.3166 12.8531 37.8038 13.1712 38.3166 13.6834C38.8295 14.1955 39.1455 14.6834 39.4115 15.3667C39.6127 15.8824 39.8502 16.6578 39.9151 18.0851C39.9857 19.6293 40 20.0915 40 24.0004C40 27.9077 39.9857 28.3714 39.9151 29.9157C39.8502 31.3429 39.6113 32.1183 39.4115 32.634C39.1455 33.3173 38.8288 33.8045 38.3166 34.3166C37.8045 34.8288 37.3166 35.1455 36.6333 35.4115C36.1176 35.6127 35.3422 35.8502 33.9149 35.9151C32.3721 35.9857 31.9085 36 27.9996 36C24.0923 36 23.6286 35.9864 22.0858 35.9151" fill="url(#paint1_radial_1:26)"/>
<path d="M25.0534 24.0511C25.0534 22.4098 26.3836 21.0789 28.025 21.0789C29.6663 21.0789 30.9972 22.4098 30.9972 24.0511C30.9972 25.6925 29.6663 27.0234 28.025 27.0234C26.3836 27.0234 25.0534 25.6925 25.0534 24.0511V24.0511ZM23.4466 24.0511C23.4466 26.5797 25.4963 28.6294 28.025 28.6294C30.5536 28.6294 32.6033 26.5797 32.6033 24.0511C32.6033 21.5225 30.5536 19.4728 28.025 19.4728C25.4963 19.4728 23.4467 21.5224 23.4467 24.0511H23.4466ZM31.7146 19.2913C31.7146 19.5029 31.7772 19.7098 31.8947 19.8858C32.0122 20.0618 32.1793 20.199 32.3747 20.28C32.5702 20.3611 32.7853 20.3824 32.9929 20.3412C33.2005 20.3 33.3911 20.1982 33.5408 20.0486C33.6905 19.899 33.7925 19.7084 33.8339 19.5009C33.8752 19.2933 33.8541 19.0782 33.7732 18.8827C33.6923 18.6871 33.5553 18.52 33.3794 18.4023C33.2035 18.2847 32.9966 18.2219 32.785 18.2218H32.7846C32.5009 18.2219 32.2289 18.3346 32.0283 18.5352C31.8277 18.7357 31.7149 19.0076 31.7146 19.2913V19.2913ZM24.4228 31.3087C23.5536 31.2691 23.0811 31.1243 22.7671 31.002C22.3508 30.8399 22.0538 30.6469 21.7415 30.335C21.4293 30.0232 21.236 29.7265 21.0746 29.3102C20.9522 28.9963 20.8074 28.5237 20.7679 27.6544C20.7247 26.7146 20.716 26.4323 20.716 24.0513C20.716 21.6702 20.7254 21.3887 20.7679 20.4481C20.8075 19.5788 20.9533 19.1071 21.0746 18.7923C21.2367 18.3761 21.4297 18.0791 21.7415 17.7668C22.0534 17.4545 22.3501 17.2612 22.7671 17.0999C23.0809 16.9775 23.5536 16.8327 24.4228 16.7931C25.3627 16.7499 25.645 16.7413 28.025 16.7413C30.4049 16.7413 30.6875 16.7505 31.6281 16.7933C32.4974 16.8329 32.9691 16.9787 33.2839 17.1C33.7002 17.2613 33.9972 17.4551 34.3094 17.7669C34.6217 18.0788 34.8143 18.3762 34.9764 18.7925C35.0988 19.1063 35.2436 19.579 35.2831 20.4482C35.3263 21.3889 35.3349 21.6704 35.3349 24.0514C35.3349 26.4324 35.3263 26.714 35.2831 27.6546C35.2435 28.5239 35.098 28.9963 34.9764 29.3103C34.8143 29.7266 34.6213 30.0236 34.3094 30.3352C33.9976 30.6468 33.7002 30.8401 33.2839 31.0021C32.97 31.1245 32.4974 31.2693 31.6281 31.3088C30.6883 31.352 30.406 31.3607 28.025 31.3607C25.6439 31.3607 25.3624 31.352 24.4228 31.3088V31.3087ZM24.349 15.189C23.3999 15.2323 22.7513 15.3828 22.1848 15.6032C21.5986 15.8308 21.1016 16.1361 20.6054 16.6316C20.1092 17.127 19.8046 17.6241 19.577 18.211C19.3566 18.7778 19.2061 19.426 19.1629 20.3752C19.1189 21.3259 19.1089 21.6298 19.1089 24.0511C19.1089 26.4725 19.1189 26.7764 19.1629 27.7271C19.2061 28.6763 19.3566 29.3245 19.577 29.8912C19.8046 30.4775 20.1092 30.9754 20.6054 31.4707C21.1016 31.9659 21.5979 32.2708 22.1848 32.4991C22.7523 32.7195 23.3999 32.87 24.349 32.9132C25.3002 32.9564 25.6036 32.9672 28.025 32.9672C30.4463 32.9672 30.7502 32.9572 31.7009 32.9132C32.6501 32.87 33.2983 32.7195 33.8651 32.4991C34.4513 32.2708 34.9483 31.9661 35.4445 31.4707C35.9407 30.9752 36.2447 30.4775 36.4729 29.8912C36.6933 29.3245 36.8445 28.6762 36.8871 27.7271C36.9303 26.7757 36.9403 26.4725 36.9403 24.0511C36.9403 21.6298 36.9303 21.3259 36.8871 20.3752C36.8438 19.426 36.6933 18.7774 36.4729 18.211C36.2447 17.6248 35.9399 17.1278 35.4445 16.6316C34.949 16.1354 34.4513 15.8308 33.8658 15.6032C33.2983 15.3828 32.6501 15.2315 31.7016 15.189C30.7508 15.1456 30.447 15.135 28.026 15.135C25.6051 15.135 25.3005 15.1451 24.3494 15.189" fill="white"/>
<path d="M55.2959 30.5H53.6084V17.7031H55.2959V30.5ZM59.6729 20.9902L59.7256 22.1855C60.4521 21.2715 61.4014 20.8145 62.5732 20.8145C64.583 20.8145 65.5967 21.9482 65.6143 24.2158V30.5H63.9883V24.207C63.9824 23.5215 63.8242 23.0146 63.5137 22.6865C63.209 22.3584 62.7314 22.1943 62.0811 22.1943C61.5537 22.1943 61.0908 22.335 60.6924 22.6162C60.2939 22.8975 59.9834 23.2666 59.7607 23.7236V30.5H58.1348V20.9902H59.6729ZM73.6035 27.9775C73.6035 27.5381 73.4365 27.1982 73.1025 26.958C72.7744 26.7119 72.1973 26.501 71.3711 26.3252C70.5508 26.1494 69.8975 25.9385 69.4111 25.6924C68.9307 25.4463 68.5732 25.1533 68.3389 24.8135C68.1104 24.4736 67.9961 24.0693 67.9961 23.6006C67.9961 22.8213 68.3242 22.1621 68.9805 21.623C69.6426 21.084 70.4863 20.8145 71.5117 20.8145C72.5898 20.8145 73.4629 21.0928 74.1309 21.6494C74.8047 22.2061 75.1416 22.918 75.1416 23.7852H73.5068C73.5068 23.3398 73.3164 22.9561 72.9355 22.6338C72.5605 22.3115 72.0859 22.1504 71.5117 22.1504C70.9199 22.1504 70.457 22.2793 70.123 22.5371C69.7891 22.7949 69.6221 23.1318 69.6221 23.5479C69.6221 23.9404 69.7773 24.2363 70.0879 24.4355C70.3984 24.6348 70.958 24.8252 71.7666 25.0068C72.5811 25.1885 73.2402 25.4053 73.7441 25.6572C74.248 25.9092 74.6201 26.2139 74.8604 26.5713C75.1064 26.9229 75.2295 27.3535 75.2295 27.8633C75.2295 28.7129 74.8896 29.3955 74.21 29.9111C73.5303 30.4209 72.6484 30.6758 71.5645 30.6758C70.8027 30.6758 70.1289 30.541 69.543 30.2715C68.957 30.002 68.4971 29.627 68.1631 29.1465C67.835 28.6602 67.6709 28.1357 67.6709 27.5732H69.2969C69.3262 28.1182 69.543 28.5518 69.9473 28.874C70.3574 29.1904 70.8965 29.3486 71.5645 29.3486C72.1797 29.3486 72.6719 29.2256 73.041 28.9795C73.416 28.7275 73.6035 28.3936 73.6035 27.9775ZM79.5537 18.6875V20.9902H81.3291V22.2471H79.5537V28.1445C79.5537 28.5254 79.6328 28.8125 79.791 29.0059C79.9492 29.1934 80.2188 29.2871 80.5996 29.2871C80.7871 29.2871 81.0449 29.252 81.373 29.1816V30.5C80.9453 30.6172 80.5293 30.6758 80.125 30.6758C79.3984 30.6758 78.8506 30.4561 78.4814 30.0166C78.1123 29.5771 77.9277 28.9531 77.9277 28.1445V22.2471H76.1963V20.9902H77.9277V18.6875H79.5537ZM89.1074 30.5C89.0137 30.3125 88.9375 29.9785 88.8789 29.498C88.123 30.2832 87.2207 30.6758 86.1719 30.6758C85.2344 30.6758 84.4639 30.4121 83.8604 29.8848C83.2627 29.3516 82.9639 28.6777 82.9639 27.8633C82.9639 26.873 83.3389 26.1055 84.0889 25.5605C84.8447 25.0098 85.9053 24.7344 87.2705 24.7344H88.8525V23.9873C88.8525 23.4189 88.6826 22.9678 88.3428 22.6338C88.0029 22.2939 87.502 22.124 86.8398 22.124C86.2598 22.124 85.7734 22.2705 85.3809 22.5635C84.9883 22.8564 84.792 23.2109 84.792 23.627H83.1572C83.1572 23.1523 83.3242 22.6953 83.6582 22.2559C83.998 21.8105 84.4551 21.459 85.0293 21.2012C85.6094 20.9434 86.2451 20.8145 86.9365 20.8145C88.0322 20.8145 88.8906 21.0898 89.5117 21.6406C90.1328 22.1855 90.4551 22.9385 90.4785 23.8994V28.2764C90.4785 29.1494 90.5898 29.8438 90.8125 30.3594V30.5H89.1074ZM86.4092 29.2607C86.9189 29.2607 87.4023 29.1289 87.8594 28.8652C88.3164 28.6016 88.6475 28.2588 88.8525 27.8369V25.8857H87.5781C85.5859 25.8857 84.5898 26.4688 84.5898 27.6348C84.5898 28.1445 84.7598 28.543 85.0996 28.8301C85.4395 29.1172 85.876 29.2607 86.4092 29.2607ZM92.6406 25.666C92.6406 24.1836 92.9834 23.0059 93.6689 22.1328C94.3545 21.2539 95.2627 20.8145 96.3936 20.8145C97.5537 20.8145 98.459 21.2246 99.1094 22.0449L99.1885 20.9902H100.674V30.2715C100.674 31.502 100.308 32.4717 99.5752 33.1807C98.8486 33.8896 97.8701 34.2441 96.6396 34.2441C95.9541 34.2441 95.2832 34.0977 94.627 33.8047C93.9707 33.5117 93.4697 33.1104 93.124 32.6006L93.9678 31.625C94.665 32.4863 95.5176 32.917 96.5254 32.917C97.3164 32.917 97.9316 32.6943 98.3711 32.249C98.8164 31.8037 99.0391 31.1768 99.0391 30.3682V29.5508C98.3887 30.3008 97.501 30.6758 96.376 30.6758C95.2627 30.6758 94.3604 30.2275 93.6689 29.3311C92.9834 28.4346 92.6406 27.2129 92.6406 25.666ZM94.2754 25.8506C94.2754 26.9229 94.4951 27.7666 94.9346 28.3818C95.374 28.9912 95.9893 29.2959 96.7803 29.2959C97.8057 29.2959 98.5586 28.8301 99.0391 27.8984V23.5566C98.541 22.6484 97.7939 22.1943 96.7979 22.1943C96.0068 22.1943 95.3887 22.502 94.9434 23.1172C94.498 23.7324 94.2754 24.6436 94.2754 25.8506ZM107.731 22.4492C107.485 22.4082 107.219 22.3877 106.932 22.3877C105.865 22.3877 105.142 22.8418 104.761 23.75V30.5H103.135V20.9902H104.717L104.743 22.0889C105.276 21.2393 106.032 20.8145 107.011 20.8145C107.327 20.8145 107.567 20.8555 107.731 20.9375V22.4492ZM114.754 30.5C114.66 30.3125 114.584 29.9785 114.525 29.498C113.77 30.2832 112.867 30.6758 111.818 30.6758C110.881 30.6758 110.11 30.4121 109.507 29.8848C108.909 29.3516 108.61 28.6777 108.61 27.8633C108.61 26.873 108.985 26.1055 109.735 25.5605C110.491 25.0098 111.552 24.7344 112.917 24.7344H114.499V23.9873C114.499 23.4189 114.329 22.9678 113.989 22.6338C113.649 22.2939 113.148 22.124 112.486 22.124C111.906 22.124 111.42 22.2705 111.027 22.5635C110.635 22.8564 110.438 23.2109 110.438 23.627H108.804C108.804 23.1523 108.971 22.6953 109.305 22.2559C109.645 21.8105 110.102 21.459 110.676 21.2012C111.256 20.9434 111.892 20.8145 112.583 20.8145C113.679 20.8145 114.537 21.0898 115.158 21.6406C115.779 22.1855 116.102 22.9385 116.125 23.8994V28.2764C116.125 29.1494 116.236 29.8438 116.459 30.3594V30.5H114.754ZM112.056 29.2607C112.565 29.2607 113.049 29.1289 113.506 28.8652C113.963 28.6016 114.294 28.2588 114.499 27.8369V25.8857H113.225C111.232 25.8857 110.236 26.4688 110.236 27.6348C110.236 28.1445 110.406 28.543 110.746 28.8301C111.086 29.1172 111.522 29.2607 112.056 29.2607ZM120.203 20.9902L120.247 22.0449C120.944 21.2246 121.885 20.8145 123.068 20.8145C124.398 20.8145 125.304 21.3242 125.784 22.3438C126.101 21.8867 126.511 21.5176 127.015 21.2363C127.524 20.9551 128.125 20.8145 128.816 20.8145C130.902 20.8145 131.963 21.9189 131.998 24.1279V30.5H130.372V24.2246C130.372 23.5449 130.217 23.0381 129.906 22.7041C129.596 22.3643 129.074 22.1943 128.342 22.1943C127.738 22.1943 127.237 22.376 126.839 22.7393C126.44 23.0967 126.209 23.5801 126.145 24.1895V30.5H124.51V24.2686C124.51 22.8857 123.833 22.1943 122.479 22.1943C121.413 22.1943 120.684 22.6484 120.291 23.5566V30.5H118.665V20.9902H120.203Z" fill="#FAFAFA"/>
<defs>
<radialGradient id="paint0_radial_1:26" cx="0" cy="0" r="1" gradientUnits="userSpaceOnUse" gradientTransform="translate(17.5533 35.4742) scale(30.4711)">
<stop offset="0.09" stop-color="#FA8F21"/>
<stop offset="0.78" stop-color="#D82D7E"/>
</radialGradient>
<radialGradient id="paint1_radial_1:26" cx="0" cy="0" r="1" gradientUnits="userSpaceOnUse" gradientTransform="translate(32.624 34.7036) scale(26.8148)">
<stop offset="0.64" stop-color="#8C3AAA" stop-opacity="0"/>
<stop offset="1" stop-color="#8C3AAA"/>
</radialGradient>
</defs>
</svg>
