<svg width="194" height="48" viewBox="0 0 194 48" fill="none" xmlns="http://www.w3.org/2000/svg">
<rect width="194" height="48" rx="8" fill="#212121"/>
<path fill-rule="evenodd" clip-rule="evenodd" d="M40 24C40 30.627 34.627 36 28 36C21.373 36 16 30.627 16 24C16 17.373 21.373 12 28 12C34.627 12 40 17.373 40 24ZM28.43 20.859C27.263 21.344 24.93 22.349 21.432 23.873C20.864 24.099 20.566 24.32 20.539 24.536C20.493 24.902 20.951 25.046 21.573 25.241C21.658 25.268 21.746 25.295 21.836 25.325C22.449 25.524 23.273 25.757 23.701 25.766C24.09 25.774 24.524 25.614 25.003 25.286C28.271 23.079 29.958 21.964 30.064 21.94C30.139 21.923 30.243 21.901 30.313 21.964C30.383 22.026 30.376 22.144 30.369 22.176C30.323 22.369 28.529 24.038 27.599 24.902C27.309 25.171 27.104 25.362 27.062 25.406C26.968 25.503 26.872 25.596 26.78 25.685C26.21 26.233 25.784 26.645 26.804 27.317C27.294 27.64 27.686 27.907 28.077 28.173C28.504 28.464 28.93 28.754 29.482 29.116C29.622 29.208 29.756 29.303 29.887 29.396C30.384 29.751 30.831 30.069 31.383 30.019C31.703 29.989 32.035 29.688 32.203 28.789C32.6 26.663 33.382 22.059 33.563 20.161C33.574 20.0034 33.5673 19.8451 33.543 19.689C33.5285 19.5629 33.4671 19.4469 33.371 19.364C33.228 19.247 33.006 19.222 32.906 19.224C32.455 19.232 31.763 19.473 28.43 20.859Z" fill="#1D9BF0"/>
<path d="M62.3271 19.0918H58.2139V30.5H56.5352V19.0918H52.4307V17.7031H62.3271V19.0918ZM67.0381 30.6758C65.749 30.6758 64.7002 30.2539 63.8916 29.4102C63.083 28.5605 62.6787 27.4268 62.6787 26.0088V25.71C62.6787 24.7666 62.8574 23.9258 63.2148 23.1875C63.5781 22.4434 64.082 21.8633 64.7266 21.4473C65.377 21.0254 66.0801 20.8145 66.8359 20.8145C68.0723 20.8145 69.0332 21.2217 69.7188 22.0361C70.4043 22.8506 70.7471 24.0166 70.7471 25.5342V26.2109H64.3047C64.3281 27.1484 64.6006 27.9072 65.1221 28.4873C65.6494 29.0615 66.3174 29.3486 67.126 29.3486C67.7002 29.3486 68.1865 29.2314 68.585 28.9971C68.9834 28.7627 69.332 28.4521 69.6309 28.0654L70.624 28.8389C69.8271 30.0635 68.6318 30.6758 67.0381 30.6758ZM66.8359 22.1504C66.1797 22.1504 65.6289 22.3906 65.1836 22.8711C64.7383 23.3457 64.4629 24.0137 64.3574 24.875H69.1211V24.752C69.0742 23.9258 68.8516 23.2871 68.4531 22.8359C68.0547 22.3789 67.5156 22.1504 66.8359 22.1504ZM74.4033 30.5H72.7773V17H74.4033V30.5ZM80.96 30.6758C79.6709 30.6758 78.6221 30.2539 77.8135 29.4102C77.0049 28.5605 76.6006 27.4268 76.6006 26.0088V25.71C76.6006 24.7666 76.7793 23.9258 77.1367 23.1875C77.5 22.4434 78.0039 21.8633 78.6484 21.4473C79.2988 21.0254 80.002 20.8145 80.7578 20.8145C81.9941 20.8145 82.9551 21.2217 83.6406 22.0361C84.3262 22.8506 84.6689 24.0166 84.6689 25.5342V26.2109H78.2266C78.25 27.1484 78.5225 27.9072 79.0439 28.4873C79.5713 29.0615 80.2393 29.3486 81.0479 29.3486C81.6221 29.3486 82.1084 29.2314 82.5068 28.9971C82.9053 28.7627 83.2539 28.4521 83.5527 28.0654L84.5459 28.8389C83.749 30.0635 82.5537 30.6758 80.96 30.6758ZM80.7578 22.1504C80.1016 22.1504 79.5508 22.3906 79.1055 22.8711C78.6602 23.3457 78.3848 24.0137 78.2793 24.875H83.043V24.752C82.9961 23.9258 82.7734 23.2871 82.375 22.8359C81.9766 22.3789 81.4375 22.1504 80.7578 22.1504ZM86.1719 25.666C86.1719 24.1836 86.5146 23.0059 87.2002 22.1328C87.8857 21.2539 88.7939 20.8145 89.9248 20.8145C91.085 20.8145 91.9902 21.2246 92.6406 22.0449L92.7197 20.9902H94.2051V30.2715C94.2051 31.502 93.8389 32.4717 93.1064 33.1807C92.3799 33.8896 91.4014 34.2441 90.1709 34.2441C89.4854 34.2441 88.8145 34.0977 88.1582 33.8047C87.502 33.5117 87.001 33.1104 86.6553 32.6006L87.499 31.625C88.1963 32.4863 89.0488 32.917 90.0566 32.917C90.8477 32.917 91.4629 32.6943 91.9023 32.249C92.3477 31.8037 92.5703 31.1768 92.5703 30.3682V29.5508C91.9199 30.3008 91.0322 30.6758 89.9072 30.6758C88.7939 30.6758 87.8916 30.2275 87.2002 29.3311C86.5146 28.4346 86.1719 27.2129 86.1719 25.666ZM87.8066 25.8506C87.8066 26.9229 88.0264 27.7666 88.4658 28.3818C88.9053 28.9912 89.5205 29.2959 90.3115 29.2959C91.3369 29.2959 92.0898 28.8301 92.5703 27.8984V23.5566C92.0723 22.6484 91.3252 22.1943 90.3291 22.1943C89.5381 22.1943 88.9199 22.502 88.4746 23.1172C88.0293 23.7324 87.8066 24.6436 87.8066 25.8506ZM101.263 22.4492C101.017 22.4082 100.75 22.3877 100.463 22.3877C99.3965 22.3877 98.6729 22.8418 98.292 23.75V30.5H96.666V20.9902H98.248L98.2744 22.0889C98.8076 21.2393 99.5635 20.8145 100.542 20.8145C100.858 20.8145 101.099 20.8555 101.263 20.9375V22.4492ZM108.285 30.5C108.191 30.3125 108.115 29.9785 108.057 29.498C107.301 30.2832 106.398 30.6758 105.35 30.6758C104.412 30.6758 103.642 30.4121 103.038 29.8848C102.44 29.3516 102.142 28.6777 102.142 27.8633C102.142 26.873 102.517 26.1055 103.267 25.5605C104.022 25.0098 105.083 24.7344 106.448 24.7344H108.03V23.9873C108.03 23.4189 107.86 22.9678 107.521 22.6338C107.181 22.2939 106.68 22.124 106.018 22.124C105.438 22.124 104.951 22.2705 104.559 22.5635C104.166 22.8564 103.97 23.2109 103.97 23.627H102.335C102.335 23.1523 102.502 22.6953 102.836 22.2559C103.176 21.8105 103.633 21.459 104.207 21.2012C104.787 20.9434 105.423 20.8145 106.114 20.8145C107.21 20.8145 108.068 21.0898 108.689 21.6406C109.311 22.1855 109.633 22.9385 109.656 23.8994V28.2764C109.656 29.1494 109.768 29.8438 109.99 30.3594V30.5H108.285ZM105.587 29.2607C106.097 29.2607 106.58 29.1289 107.037 28.8652C107.494 28.6016 107.825 28.2588 108.03 27.8369V25.8857H106.756C104.764 25.8857 103.768 26.4688 103.768 27.6348C103.768 28.1445 103.938 28.543 104.277 28.8301C104.617 29.1172 105.054 29.2607 105.587 29.2607ZM113.734 20.9902L113.778 22.0449C114.476 21.2246 115.416 20.8145 116.6 20.8145C117.93 20.8145 118.835 21.3242 119.315 22.3438C119.632 21.8867 120.042 21.5176 120.546 21.2363C121.056 20.9551 121.656 20.8145 122.348 20.8145C124.434 20.8145 125.494 21.9189 125.529 24.1279V30.5H123.903V24.2246C123.903 23.5449 123.748 23.0381 123.438 22.7041C123.127 22.3643 122.605 22.1943 121.873 22.1943C121.27 22.1943 120.769 22.376 120.37 22.7393C119.972 23.0967 119.74 23.5801 119.676 24.1895V30.5H118.041V24.2686C118.041 22.8857 117.364 22.1943 116.011 22.1943C114.944 22.1943 114.215 22.6484 113.822 23.5566V30.5H112.196V20.9902H113.734ZM135.839 25.7275H131.55V24.4004H135.839V25.7275ZM151.562 26.4395C151.404 27.793 150.903 28.8389 150.06 29.5771C149.222 30.3096 148.105 30.6758 146.711 30.6758C145.199 30.6758 143.986 30.1338 143.072 29.0498C142.164 27.9658 141.71 26.5156 141.71 24.6992V23.4688C141.71 22.2793 141.921 21.2334 142.343 20.3311C142.771 19.4287 143.374 18.7373 144.153 18.2568C144.933 17.7705 145.835 17.5273 146.86 17.5273C148.22 17.5273 149.31 17.9082 150.13 18.6699C150.95 19.4258 151.428 20.4746 151.562 21.8164H149.866C149.72 20.7969 149.4 20.0586 148.908 19.6016C148.422 19.1445 147.739 18.916 146.86 18.916C145.782 18.916 144.936 19.3145 144.32 20.1113C143.711 20.9082 143.406 22.042 143.406 23.5127V24.752C143.406 26.1406 143.696 27.2451 144.276 28.0654C144.856 28.8857 145.668 29.2959 146.711 29.2959C147.648 29.2959 148.366 29.085 148.864 28.6631C149.368 28.2354 149.702 27.4941 149.866 26.4395H151.562ZM155.245 22.1416C155.966 21.2568 156.903 20.8145 158.058 20.8145C160.067 20.8145 161.081 21.9482 161.099 24.2158V30.5H159.473V24.207C159.467 23.5215 159.309 23.0146 158.998 22.6865C158.693 22.3584 158.216 22.1943 157.565 22.1943C157.038 22.1943 156.575 22.335 156.177 22.6162C155.778 22.8975 155.468 23.2666 155.245 23.7236V30.5H153.619V17H155.245V22.1416ZM169.404 30.5C169.311 30.3125 169.234 29.9785 169.176 29.498C168.42 30.2832 167.518 30.6758 166.469 30.6758C165.531 30.6758 164.761 30.4121 164.157 29.8848C163.56 29.3516 163.261 28.6777 163.261 27.8633C163.261 26.873 163.636 26.1055 164.386 25.5605C165.142 25.0098 166.202 24.7344 167.567 24.7344H169.149V23.9873C169.149 23.4189 168.979 22.9678 168.64 22.6338C168.3 22.2939 167.799 22.124 167.137 22.124C166.557 22.124 166.07 22.2705 165.678 22.5635C165.285 22.8564 165.089 23.2109 165.089 23.627H163.454C163.454 23.1523 163.621 22.6953 163.955 22.2559C164.295 21.8105 164.752 21.459 165.326 21.2012C165.906 20.9434 166.542 20.8145 167.233 20.8145C168.329 20.8145 169.188 21.0898 169.809 21.6406C170.43 22.1855 170.752 22.9385 170.775 23.8994V28.2764C170.775 29.1494 170.887 29.8438 171.109 30.3594V30.5H169.404ZM166.706 29.2607C167.216 29.2607 167.699 29.1289 168.156 28.8652C168.613 28.6016 168.944 28.2588 169.149 27.8369V25.8857H167.875C165.883 25.8857 164.887 26.4688 164.887 27.6348C164.887 28.1445 165.057 28.543 165.396 28.8301C165.736 29.1172 166.173 29.2607 166.706 29.2607ZM175.53 18.6875V20.9902H177.306V22.2471H175.53V28.1445C175.53 28.5254 175.609 28.8125 175.768 29.0059C175.926 29.1934 176.195 29.2871 176.576 29.2871C176.764 29.2871 177.021 29.252 177.35 29.1816V30.5C176.922 30.6172 176.506 30.6758 176.102 30.6758C175.375 30.6758 174.827 30.4561 174.458 30.0166C174.089 29.5771 173.904 28.9531 173.904 28.1445V22.2471H172.173V20.9902H173.904V18.6875H175.53Z" fill="#FAFAFA"/>
</svg>
