<svg width="130" height="48" viewBox="0 0 130 48" fill="none" xmlns="http://www.w3.org/2000/svg">
<path d="M122 0H8C3.58172 0 0 3.58172 0 8V40C0 44.4183 3.58172 48 8 48H122C126.418 48 130 44.4183 130 40V8C130 3.58172 126.418 0 122 0Z" fill="#ECECEC"/>
<path d="M35.636 16.442C34.1933 15.7595 32.6669 15.2746 31.0973 15C30.9018 15.3573 30.6734 15.838 30.5159 16.2203C28.8236 15.9631 27.1469 15.9631 25.4857 16.2203C25.3283 15.8381 25.0947 15.3573 24.8974 15C23.3263 15.2747 21.7986 15.7609 20.3552 16.4455C17.4828 20.8339 16.7041 25.1131 17.0934 29.3318C18.9986 30.7701 20.8448 31.6439 22.66 32.2157C23.1111 31.5885 23.5099 30.9244 23.8522 30.2305C23.2005 29.9796 22.5722 29.6705 21.9748 29.3067C22.132 29.1889 22.2855 29.0662 22.4351 28.9386C26.055 30.6504 29.9882 30.6504 33.5649 28.9386C33.7151 29.0653 33.8685 29.1881 34.0251 29.3067C33.4267 29.6714 32.7973 29.9812 32.1442 30.2323C32.4885 30.9291 32.8866 31.5937 33.3364 32.2174C35.1533 31.6457 37.0013 30.7719 38.9065 29.3318C39.3633 24.4413 38.1262 20.2013 35.636 16.4419V16.442ZM24.3454 26.7374C23.2587 26.7374 22.3676 25.7117 22.3676 24.4628C22.3676 23.2139 23.2397 22.1865 24.3454 22.1865C25.4512 22.1865 26.3423 23.212 26.3233 24.4628C26.325 25.7117 25.4512 26.7374 24.3454 26.7374ZM31.6545 26.7374C30.5678 26.7374 29.6767 25.7117 29.6767 24.4628C29.6767 23.2139 30.5488 22.1865 31.6545 22.1865C32.7602 22.1865 33.6513 23.212 33.6323 24.4628C33.6323 25.7117 32.7602 26.7374 31.6545 26.7374Z" fill="#5865F2"/>
<path d="M53.4863 30.5V17.7031H57.0986C58.2118 17.7031 59.1962 17.9492 60.0517 18.4414C60.9071 18.9336 61.5663 19.6338 62.0292 20.542C62.498 21.4502 62.7353 22.4932 62.7411 23.6709V24.4883C62.7411 25.6953 62.5068 26.7529 62.038 27.6611C61.5751 28.5693 60.9101 29.2666 60.0429 29.7529C59.1816 30.2393 58.1767 30.4883 57.0282 30.5H53.4863ZM55.1738 19.0918V29.1201H56.9491C58.2499 29.1201 59.2607 28.7158 59.9814 27.9072C60.7079 27.0986 61.0712 25.9473 61.0712 24.4531V23.7061C61.0712 22.2529 60.7284 21.125 60.0429 20.3223C59.3632 19.5137 58.3964 19.1035 57.1425 19.0918H55.1738ZM66.8105 30.5H65.1845V20.9902H66.8105V30.5ZM65.0527 18.4678C65.0527 18.2041 65.1318 17.9814 65.29 17.7998C65.454 17.6182 65.6943 17.5273 66.0107 17.5273C66.3271 17.5273 66.5673 17.6182 66.7314 17.7998C66.8954 17.9814 66.9775 18.2041 66.9775 18.4678C66.9775 18.7314 66.8954 18.9512 66.7314 19.127C66.5673 19.3027 66.3271 19.3906 66.0107 19.3906C65.6943 19.3906 65.454 19.3027 65.29 19.127C65.1318 18.9512 65.0527 18.7314 65.0527 18.4678ZM74.9579 27.9775C74.9579 27.5381 74.7909 27.1982 74.457 26.958C74.1288 26.7119 73.5517 26.501 72.7255 26.3252C71.9052 26.1494 71.2519 25.9385 70.7655 25.6924C70.2851 25.4463 69.9277 25.1533 69.6933 24.8135C69.4648 24.4736 69.3505 24.0693 69.3505 23.6006C69.3505 22.8213 69.6786 22.1621 70.3349 21.623C70.997 21.084 71.8407 20.8145 72.8661 20.8145C73.9443 20.8145 74.8173 21.0928 75.4853 21.6494C76.1591 22.2061 76.496 22.918 76.496 23.7852H74.8613C74.8613 23.3398 74.6708 22.9561 74.29 22.6338C73.915 22.3115 73.4404 22.1504 72.8661 22.1504C72.2743 22.1504 71.8114 22.2793 71.4775 22.5371C71.1435 22.7949 70.9765 23.1318 70.9765 23.5479C70.9765 23.9404 71.1318 24.2363 71.4423 24.4355C71.7529 24.6348 72.3124 24.8252 73.121 25.0068C73.9355 25.1885 74.5947 25.4053 75.0986 25.6572C75.6025 25.9092 75.9745 26.2139 76.2148 26.5713C76.4609 26.9229 76.5839 27.3535 76.5839 27.8633C76.5839 28.7129 76.2441 29.3955 75.5644 29.9111C74.8847 30.4209 74.0029 30.6758 72.9189 30.6758C72.1571 30.6758 71.4833 30.541 70.8974 30.2715C70.3114 30.002 69.8515 29.627 69.5175 29.1465C69.1894 28.6602 69.0253 28.1357 69.0253 27.5732H70.6513C70.6806 28.1182 70.8974 28.5518 71.3017 28.874C71.7118 29.1904 72.2509 29.3486 72.9189 29.3486C73.5341 29.3486 74.0263 29.2256 74.3954 28.9795C74.7704 28.7275 74.9579 28.3936 74.9579 27.9775ZM82.5165 29.3486C83.0966 29.3486 83.6034 29.1729 84.037 28.8213C84.4706 28.4697 84.7109 28.0303 84.7577 27.5029H86.2958C86.2665 28.0479 86.079 28.5664 85.7333 29.0586C85.3876 29.5508 84.9247 29.9434 84.3447 30.2363C83.7704 30.5293 83.1611 30.6758 82.5165 30.6758C81.2216 30.6758 80.1904 30.2451 79.4228 29.3838C78.6611 28.5166 78.2802 27.333 78.2802 25.833V25.5605C78.2802 24.6348 78.4501 23.8115 78.79 23.0908C79.1298 22.3701 79.6161 21.8105 80.2489 21.4121C80.8876 21.0137 81.6405 20.8145 82.5077 20.8145C83.5741 20.8145 84.4589 21.1338 85.162 21.7725C85.871 22.4111 86.2489 23.2402 86.2958 24.2598H84.7577C84.7109 23.6445 84.4765 23.1406 84.0546 22.748C83.6386 22.3496 83.123 22.1504 82.5077 22.1504C81.6816 22.1504 81.04 22.4492 80.5829 23.0469C80.1318 23.6387 79.9062 24.4971 79.9062 25.6221V25.9297C79.9062 27.0254 80.1318 27.8691 80.5829 28.4609C81.0341 29.0527 81.6786 29.3486 82.5165 29.3486ZM87.6933 25.6572C87.6933 24.7256 87.8749 23.8877 88.2382 23.1436C88.6073 22.3994 89.1171 21.8252 89.7675 21.4209C90.4238 21.0166 91.1708 20.8145 92.0087 20.8145C93.3036 20.8145 94.3495 21.2627 95.1464 22.1592C95.9491 23.0557 96.3505 24.248 96.3505 25.7363V25.8506C96.3505 26.7764 96.1718 27.6084 95.8144 28.3467C95.4628 29.0791 94.956 29.6504 94.2939 30.0605C93.6376 30.4707 92.8818 30.6758 92.0263 30.6758C90.7372 30.6758 89.6913 30.2275 88.8886 29.3311C88.0917 28.4346 87.6933 27.248 87.6933 25.7715V25.6572ZM89.328 25.8506C89.328 26.9053 89.5712 27.752 90.0575 28.3906C90.5497 29.0293 91.206 29.3486 92.0263 29.3486C92.8525 29.3486 93.5087 29.0264 93.995 28.3818C94.4814 27.7314 94.7245 26.8232 94.7245 25.6572C94.7245 24.6143 94.4755 23.7705 93.9775 23.126C93.4853 22.4756 92.829 22.1504 92.0087 22.1504C91.206 22.1504 90.5585 22.4697 90.0663 23.1084C89.5741 23.7471 89.328 24.6611 89.328 25.8506ZM102.986 22.4492C102.74 22.4082 102.474 22.3877 102.187 22.3877C101.12 22.3877 100.397 22.8418 100.016 23.75V30.5H98.3896V20.9902H99.9716L99.998 22.0889C100.531 21.2393 101.287 20.8145 102.266 20.8145C102.582 20.8145 102.822 20.8555 102.986 20.9375V22.4492ZM103.918 25.666C103.918 24.207 104.264 23.0352 104.955 22.1504C105.647 21.2598 106.552 20.8145 107.671 20.8145C108.784 20.8145 109.666 21.1953 110.316 21.957V17H111.942V30.5H110.448L110.369 29.4805C109.719 30.2773 108.813 30.6758 107.653 30.6758C106.552 30.6758 105.652 30.2246 104.955 29.3223C104.264 28.4199 103.918 27.2422 103.918 25.7891V25.666ZM105.544 25.8506C105.544 26.9287 105.767 27.7725 106.212 28.3818C106.657 28.9912 107.272 29.2959 108.058 29.2959C109.089 29.2959 109.842 28.833 110.316 27.9072V23.5391C109.83 22.6426 109.083 22.1943 108.075 22.1943C107.278 22.1943 106.657 22.502 106.212 23.1172C105.767 23.7324 105.544 24.6436 105.544 25.8506Z" fill="#212121"/>
</svg>
