<svg width="147" height="48" viewBox="0 0 147 48" fill="none" xmlns="http://www.w3.org/2000/svg">
<path d="M139 0H8C3.58172 0 0 3.58172 0 8V40C0 44.4183 3.58172 48 8 48H139C143.418 48 147 44.4183 147 40V8C147 3.58172 143.418 0 139 0Z" fill="#ECECEC"/>
<path fill-rule="evenodd" clip-rule="evenodd" d="M16 24.067C16 30.033 20.333 34.994 26 36V27.333H23V24H26V21.333C26 18.333 27.933 16.667 30.667 16.667C31.533 16.667 32.467 16.8 33.333 16.933V20H31.8C30.333 20 30 20.733 30 21.667V24H33.2L32.667 27.333H30V36C35.667 34.994 40 30.034 40 24.067C40 17.43 34.6 12 28 12C21.4 12 16 17.43 16 24.067Z" fill="#0082DA"/>
<path d="M60.5439 24.8486H55.1738V30.5H53.4863V17.7031H61.414V19.0918H55.1738V23.4688H60.5439V24.8486ZM68.7529 30.5C68.6591 30.3125 68.5829 29.9785 68.5243 29.498C67.7685 30.2832 66.8661 30.6758 65.8173 30.6758C64.8798 30.6758 64.1093 30.4121 63.5058 29.8848C62.9081 29.3516 62.6093 28.6777 62.6093 27.8633C62.6093 26.873 62.9843 26.1055 63.7343 25.5605C64.4902 25.0098 65.5507 24.7344 66.9159 24.7344H68.498V23.9873C68.498 23.4189 68.328 22.9678 67.9882 22.6338C67.6484 22.2939 67.1474 22.124 66.4853 22.124C65.9052 22.124 65.4189 22.2705 65.0263 22.5635C64.6337 22.8564 64.4374 23.2109 64.4374 23.627H62.8027C62.8027 23.1523 62.9697 22.6953 63.3036 22.2559C63.6435 21.8105 64.1005 21.459 64.6747 21.2012C65.2548 20.9434 65.8905 20.8145 66.582 20.8145C67.6777 20.8145 68.5361 21.0898 69.1571 21.6406C69.7782 22.1855 70.1005 22.9385 70.1239 23.8994V28.2764C70.1239 29.1494 70.2353 29.8438 70.4579 30.3594V30.5H68.7529ZM66.0546 29.2607C66.5644 29.2607 67.0478 29.1289 67.5048 28.8652C67.9618 28.6016 68.2929 28.2588 68.498 27.8369V25.8857H67.2236C65.2314 25.8857 64.2353 26.4688 64.2353 27.6348C64.2353 28.1445 64.4052 28.543 64.745 28.8301C65.0849 29.1172 65.5214 29.2607 66.0546 29.2607ZM76.4872 29.3486C77.0673 29.3486 77.5741 29.1729 78.0077 28.8213C78.4413 28.4697 78.6816 28.0303 78.7284 27.5029H80.2665C80.2372 28.0479 80.0497 28.5664 79.704 29.0586C79.3583 29.5508 78.8954 29.9434 78.3154 30.2363C77.7411 30.5293 77.1318 30.6758 76.4872 30.6758C75.1923 30.6758 74.1611 30.2451 73.3935 29.3838C72.6318 28.5166 72.2509 27.333 72.2509 25.833V25.5605C72.2509 24.6348 72.4208 23.8115 72.7607 23.0908C73.1005 22.3701 73.5868 21.8105 74.2197 21.4121C74.8583 21.0137 75.6113 20.8145 76.4784 20.8145C77.5448 20.8145 78.4296 21.1338 79.1327 21.7725C79.8417 22.4111 80.2197 23.2402 80.2665 24.2598H78.7284C78.6816 23.6445 78.4472 23.1406 78.0253 22.748C77.6093 22.3496 77.0937 22.1504 76.4784 22.1504C75.6523 22.1504 75.0107 22.4492 74.5536 23.0469C74.1025 23.6387 73.8769 24.4971 73.8769 25.6221V25.9297C73.8769 27.0254 74.1025 27.8691 74.5536 28.4609C75.0048 29.0527 75.6493 29.3486 76.4872 29.3486ZM86.0409 30.6758C84.7519 30.6758 83.703 30.2539 82.8945 29.4102C82.0859 28.5605 81.6816 27.4268 81.6816 26.0088V25.71C81.6816 24.7666 81.8603 23.9258 82.2177 23.1875C82.581 22.4434 83.0849 21.8633 83.7294 21.4473C84.3798 21.0254 85.0829 20.8145 85.8388 20.8145C87.0751 20.8145 88.0361 21.2217 88.7216 22.0361C89.4071 22.8506 89.7499 24.0166 89.7499 25.5342V26.2109H83.3075C83.331 27.1484 83.6034 27.9072 84.1249 28.4873C84.6523 29.0615 85.3202 29.3486 86.1288 29.3486C86.703 29.3486 87.1894 29.2314 87.5878 28.9971C87.9863 28.7627 88.3349 28.4521 88.6337 28.0654L89.6269 28.8389C88.83 30.0635 87.6347 30.6758 86.0409 30.6758ZM85.8388 22.1504C85.1825 22.1504 84.6318 22.3906 84.1864 22.8711C83.7411 23.3457 83.4657 24.0137 83.3603 24.875H88.1239V24.752C88.0771 23.9258 87.8544 23.2871 87.456 22.8359C87.0575 22.3789 86.5185 22.1504 85.8388 22.1504ZM99.6904 25.8506C99.6904 27.3037 99.3564 28.4727 98.6884 29.3574C98.0204 30.2363 97.1239 30.6758 95.9989 30.6758C94.7978 30.6758 93.8691 30.251 93.2128 29.4014L93.1337 30.5H91.6396V17H93.2655V22.0361C93.9218 21.2217 94.8271 20.8145 95.9814 20.8145C97.1357 20.8145 98.0409 21.251 98.6972 22.124C99.3593 22.9971 99.6904 24.1924 99.6904 25.71V25.8506ZM98.0644 25.666C98.0644 24.5586 97.8505 23.7031 97.4228 23.0996C96.995 22.4961 96.3798 22.1943 95.5771 22.1943C94.5048 22.1943 93.7343 22.6924 93.2655 23.6885V27.8018C93.7636 28.7979 94.54 29.2959 95.5947 29.2959C96.3739 29.2959 96.9804 28.9941 97.414 28.3906C97.8476 27.7871 98.0644 26.8789 98.0644 25.666ZM101.316 25.6572C101.316 24.7256 101.498 23.8877 101.861 23.1436C102.23 22.3994 102.74 21.8252 103.391 21.4209C104.047 21.0166 104.794 20.8145 105.632 20.8145C106.927 20.8145 107.973 21.2627 108.77 22.1592C109.572 23.0557 109.974 24.248 109.974 25.7363V25.8506C109.974 26.7764 109.795 27.6084 109.438 28.3467C109.086 29.0791 108.579 29.6504 107.917 30.0605C107.261 30.4707 106.505 30.6758 105.649 30.6758C104.36 30.6758 103.314 30.2275 102.512 29.3311C101.715 28.4346 101.316 27.248 101.316 25.7715V25.6572ZM102.951 25.8506C102.951 26.9053 103.194 27.752 103.681 28.3906C104.173 29.0293 104.829 29.3486 105.649 29.3486C106.476 29.3486 107.132 29.0264 107.618 28.3818C108.105 27.7314 108.348 26.8232 108.348 25.6572C108.348 24.6143 108.099 23.7705 107.601 23.126C107.108 22.4756 106.452 22.1504 105.632 22.1504C104.829 22.1504 104.182 22.4697 103.689 23.1084C103.197 23.7471 102.951 24.6611 102.951 25.8506ZM111.582 25.6572C111.582 24.7256 111.764 23.8877 112.127 23.1436C112.496 22.3994 113.006 21.8252 113.656 21.4209C114.313 21.0166 115.06 20.8145 115.897 20.8145C117.192 20.8145 118.238 21.2627 119.035 22.1592C119.838 23.0557 120.239 24.248 120.239 25.7363V25.8506C120.239 26.7764 120.061 27.6084 119.703 28.3467C119.352 29.0791 118.845 29.6504 118.183 30.0605C117.526 30.4707 116.771 30.6758 115.915 30.6758C114.626 30.6758 113.58 30.2275 112.777 29.3311C111.98 28.4346 111.582 27.248 111.582 25.7715V25.6572ZM113.217 25.8506C113.217 26.9053 113.46 27.752 113.946 28.3906C114.439 29.0293 115.095 29.3486 115.915 29.3486C116.741 29.3486 117.397 29.0264 117.884 28.3818C118.37 27.7314 118.613 26.8232 118.613 25.6572C118.613 24.6143 118.364 23.7705 117.866 23.126C117.374 22.4756 116.718 22.1504 115.897 22.1504C115.095 22.1504 114.447 22.4697 113.955 23.1084C113.463 23.7471 113.217 24.6611 113.217 25.8506ZM124.933 26.0967L123.913 27.1602V30.5H122.287V17H123.913V25.165L124.783 24.1191L127.745 20.9902H129.723L126.022 24.9629L130.153 30.5H128.246L124.933 26.0967Z" fill="#212121"/>
</svg>
