<svg width="150" height="48" viewBox="0 0 150 48" fill="none" xmlns="http://www.w3.org/2000/svg">
<path d="M142 0H8C3.58172 0 0 3.58172 0 8V40C0 44.4183 3.58172 48 8 48H142C146.418 48 150 44.4183 150 40V8C150 3.58172 146.418 0 142 0Z" fill="#ECECEC"/>
<path d="M22.0858 35.9151C20.6585 35.8502 19.8831 35.6127 19.3674 35.4115C18.6841 35.1455 18.1969 34.8288 17.6841 34.3166C17.1712 33.8045 16.8538 33.3173 16.5892 32.634C16.388 32.1183 16.1505 31.3429 16.0856 29.9157C16.0143 28.3728 16 27.9099 16 24.0011C16 20.0923 16.0157 19.63 16.0849 18.0858C16.1498 16.6585 16.3887 15.8846 16.5885 15.3674C16.8545 14.6841 17.1719 14.1969 17.6834 13.6834C18.1955 13.1712 18.6827 12.8531 19.3667 12.5885C19.8824 12.3873 20.6578 12.1498 22.0851 12.0849C23.6286 12.0143 24.0923 12 27.9996 12C31.9085 12 32.3707 12.0157 33.9149 12.0849C35.3422 12.1498 36.1161 12.3887 36.6333 12.5885C37.3166 12.8531 37.8038 13.1712 38.3166 13.6834C38.8295 14.1955 39.1455 14.6834 39.4115 15.3667C39.6127 15.8824 39.8502 16.6578 39.9151 18.0851C39.9857 19.6293 40 20.0915 40 24.0004C40 27.9077 39.9857 28.3714 39.9151 29.9157C39.8502 31.3429 39.6113 32.1183 39.4115 32.634C39.1455 33.3173 38.8288 33.8045 38.3166 34.3166C37.8045 34.8288 37.3166 35.1455 36.6333 35.4115C36.1176 35.6127 35.3422 35.8502 33.9149 35.9151C32.3721 35.9857 31.9085 36 27.9996 36C24.0923 36 23.6286 35.9864 22.0858 35.9151Z" fill="url(#paint0_radial_1108_415)"/>
<path d="M22.0858 35.9151C20.6585 35.8502 19.8831 35.6127 19.3674 35.4115C18.6841 35.1455 18.1969 34.8288 17.6841 34.3166C17.1712 33.8045 16.8538 33.3173 16.5892 32.634C16.388 32.1183 16.1505 31.3429 16.0856 29.9157C16.0143 28.3728 16 27.9099 16 24.0011C16 20.0923 16.0157 19.63 16.0849 18.0858C16.1498 16.6585 16.3887 15.8846 16.5885 15.3674C16.8545 14.6841 17.1719 14.1969 17.6834 13.6834C18.1955 13.1712 18.6827 12.8531 19.3667 12.5885C19.8824 12.3873 20.6578 12.1498 22.0851 12.0849C23.6286 12.0143 24.0923 12 27.9996 12C31.9085 12 32.3707 12.0157 33.9149 12.0849C35.3422 12.1498 36.1161 12.3887 36.6333 12.5885C37.3166 12.8531 37.8038 13.1712 38.3166 13.6834C38.8295 14.1955 39.1455 14.6834 39.4115 15.3667C39.6127 15.8824 39.8502 16.6578 39.9151 18.0851C39.9857 19.6293 40 20.0915 40 24.0004C40 27.9077 39.9857 28.3714 39.9151 29.9157C39.8502 31.3429 39.6113 32.1183 39.4115 32.634C39.1455 33.3173 38.8288 33.8045 38.3166 34.3166C37.8045 34.8288 37.3166 35.1455 36.6333 35.4115C36.1176 35.6127 35.3422 35.8502 33.9149 35.9151C32.3721 35.9857 31.9085 36 27.9996 36C24.0923 36 23.6286 35.9864 22.0858 35.9151Z" fill="url(#paint1_radial_1108_415)"/>
<path d="M25.0539 24.0509C25.0539 22.4096 26.3841 21.0787 28.0255 21.0787C29.6668 21.0787 30.9977 22.4096 30.9977 24.0509C30.9977 25.6923 29.6668 27.0232 28.0255 27.0232C26.3841 27.0232 25.0539 25.6923 25.0539 24.0509ZM23.4471 24.0509C23.4471 26.5795 25.4968 28.6292 28.0255 28.6292C30.5541 28.6292 32.6038 26.5795 32.6038 24.0509C32.6038 21.5223 30.5541 19.4726 28.0255 19.4726C25.4968 19.4726 23.4472 21.5222 23.4472 24.0509H23.4471ZM31.7151 19.2911C31.7151 19.5027 31.7777 19.7096 31.8952 19.8856C32.0127 20.0616 32.1798 20.1988 32.3752 20.2798C32.5707 20.3609 32.7858 20.3822 32.9934 20.341C33.201 20.2998 33.3916 20.198 33.5413 20.0484C33.691 19.8988 33.793 19.7082 33.8344 19.5007C33.8757 19.2931 33.8546 19.078 33.7737 18.8825C33.6928 18.6869 33.5558 18.5198 33.3799 18.4021C33.204 18.2845 32.9971 18.2217 32.7855 18.2216H32.7851C32.5014 18.2217 32.2294 18.3344 32.0288 18.535C31.8282 18.7355 31.7154 19.0074 31.7151 19.2911ZM24.4233 31.3085C23.5541 31.2689 23.0816 31.1241 22.7676 31.0018C22.3513 30.8397 22.0543 30.6467 21.742 30.3348C21.4298 30.023 21.2365 29.7263 21.0751 29.31C20.9527 28.9961 20.8079 28.5235 20.7684 27.6542C20.7252 26.7144 20.7165 26.4321 20.7165 24.0511C20.7165 21.67 20.7259 21.3885 20.7684 20.4479C20.808 19.5786 20.9538 19.1069 21.0751 18.7921C21.2372 18.3759 21.4302 18.0789 21.742 17.7666C22.0539 17.4543 22.3506 17.261 22.7676 17.0997C23.0814 16.9773 23.5541 16.8325 24.4233 16.7929C25.3632 16.7497 25.6455 16.7411 28.0255 16.7411C30.4054 16.7411 30.688 16.7503 31.6286 16.7931C32.4979 16.8327 32.9696 16.9785 33.2844 17.0998C33.7007 17.2611 33.9977 17.4549 34.3099 17.7667C34.6222 18.0786 34.8148 18.376 34.9769 18.7923C35.0993 19.1061 35.2441 19.5788 35.2836 20.448C35.3268 21.3887 35.3354 21.6702 35.3354 24.0512C35.3354 26.4322 35.3268 26.7138 35.2836 27.6544C35.244 28.5237 35.0985 28.9961 34.9769 29.3101C34.8148 29.7264 34.6218 30.0234 34.3099 30.335C33.9981 30.6466 33.7007 30.8399 33.2844 31.0019C32.9705 31.1243 32.4979 31.2691 31.6286 31.3086C30.6888 31.3518 30.4065 31.3605 28.0255 31.3605C25.6444 31.3605 25.3629 31.3518 24.4233 31.3086V31.3085ZM24.3495 15.1888C23.4004 15.2321 22.7518 15.3826 22.1853 15.603C21.5991 15.8306 21.1021 16.1359 20.6059 16.6314C20.1097 17.1268 19.8051 17.6239 19.5775 18.2108C19.3571 18.7776 19.2066 19.4258 19.1634 20.375C19.1194 21.3257 19.1094 21.6296 19.1094 24.0509C19.1094 26.4723 19.1194 26.7762 19.1634 27.7269C19.2066 28.6761 19.3571 29.3243 19.5775 29.891C19.8051 30.4773 20.1097 30.9752 20.6059 31.4705C21.1021 31.9657 21.5984 32.2706 22.1853 32.4989C22.7528 32.7193 23.4004 32.8698 24.3495 32.913C25.3007 32.9562 25.6041 32.967 28.0255 32.967C30.4468 32.967 30.7507 32.957 31.7014 32.913C32.6506 32.8698 33.2988 32.7193 33.8656 32.4989C34.4518 32.2706 34.9488 31.9659 35.445 31.4705C35.9412 30.975 36.2452 30.4773 36.4734 29.891C36.6938 29.3243 36.845 28.676 36.8876 27.7269C36.9308 26.7755 36.9408 26.4723 36.9408 24.0509C36.9408 21.6296 36.9308 21.3257 36.8876 20.375C36.8443 19.4258 36.6938 18.7772 36.4734 18.2108C36.2452 17.6246 35.9404 17.1276 35.445 16.6314C34.9495 16.1352 34.4518 15.8306 33.8663 15.603C33.2988 15.3826 32.6506 15.2313 31.7021 15.1888C30.7513 15.1454 30.4475 15.1348 28.0265 15.1348C25.6056 15.1348 25.301 15.1449 24.3499 15.1888" fill="#ECECEC"/>
<path d="M55.2969 30.5H53.6094V17.7031H55.2969V30.5ZM59.6739 20.9902L59.7266 22.1855C60.4531 21.2715 61.4024 20.8145 62.5742 20.8145C64.584 20.8145 65.5977 21.9482 65.6153 24.2158V30.5H63.9893V24.207C63.9834 23.5215 63.8252 23.0146 63.5147 22.6865C63.21 22.3584 62.7324 22.1943 62.0821 22.1943C61.5547 22.1943 61.0918 22.335 60.6934 22.6162C60.2949 22.8975 59.9844 23.2666 59.7617 23.7236V30.5H58.1358V20.9902H59.6739ZM73.6045 27.9775C73.6045 27.5381 73.4375 27.1982 73.1035 26.958C72.7754 26.7119 72.1983 26.501 71.3721 26.3252C70.5518 26.1494 69.8985 25.9385 69.4121 25.6924C68.9317 25.4463 68.5742 25.1533 68.3399 24.8135C68.1114 24.4736 67.9971 24.0693 67.9971 23.6006C67.9971 22.8213 68.3252 22.1621 68.9815 21.623C69.6436 21.084 70.4873 20.8145 71.5127 20.8145C72.5908 20.8145 73.4639 21.0928 74.1319 21.6494C74.8057 22.2061 75.1426 22.918 75.1426 23.7852H73.5078C73.5078 23.3398 73.3174 22.9561 72.9365 22.6338C72.5615 22.3115 72.0869 22.1504 71.5127 22.1504C70.9209 22.1504 70.458 22.2793 70.124 22.5371C69.7901 22.7949 69.6231 23.1318 69.6231 23.5479C69.6231 23.9404 69.7783 24.2363 70.0889 24.4355C70.3994 24.6348 70.959 24.8252 71.7676 25.0068C72.5821 25.1885 73.2412 25.4053 73.7451 25.6572C74.249 25.9092 74.6211 26.2139 74.8614 26.5713C75.1074 26.9229 75.2305 27.3535 75.2305 27.8633C75.2305 28.7129 74.8906 29.3955 74.211 29.9111C73.5313 30.4209 72.6494 30.6758 71.5655 30.6758C70.8037 30.6758 70.1299 30.541 69.544 30.2715C68.958 30.002 68.4981 29.627 68.1641 29.1465C67.836 28.6602 67.6719 28.1357 67.6719 27.5732H69.2979C69.3272 28.1182 69.544 28.5518 69.9483 28.874C70.3584 29.1904 70.8975 29.3486 71.5655 29.3486C72.1807 29.3486 72.6729 29.2256 73.042 28.9795C73.417 28.7275 73.6045 28.3936 73.6045 27.9775ZM79.5547 18.6875V20.9902H81.3301V22.2471H79.5547V28.1445C79.5547 28.5254 79.6338 28.8125 79.792 29.0059C79.9502 29.1934 80.2198 29.2871 80.6006 29.2871C80.7881 29.2871 81.0459 29.252 81.374 29.1816V30.5C80.9463 30.6172 80.5303 30.6758 80.126 30.6758C79.3994 30.6758 78.8516 30.4561 78.4824 30.0166C78.1133 29.5771 77.9287 28.9531 77.9287 28.1445V22.2471H76.1973V20.9902H77.9287V18.6875H79.5547ZM89.1084 30.5C89.0147 30.3125 88.9385 29.9785 88.8799 29.498C88.124 30.2832 87.2217 30.6758 86.1729 30.6758C85.2354 30.6758 84.4649 30.4121 83.8614 29.8848C83.2637 29.3516 82.9649 28.6777 82.9649 27.8633C82.9649 26.873 83.3399 26.1055 84.0899 25.5605C84.8457 25.0098 85.9063 24.7344 87.2715 24.7344H88.8535V23.9873C88.8535 23.4189 88.6836 22.9678 88.3438 22.6338C88.0039 22.2939 87.503 22.124 86.8408 22.124C86.2608 22.124 85.7744 22.2705 85.3819 22.5635C84.9893 22.8564 84.793 23.2109 84.793 23.627H83.1582C83.1582 23.1523 83.3252 22.6953 83.6592 22.2559C83.999 21.8105 84.4561 21.459 85.0303 21.2012C85.6104 20.9434 86.2461 20.8145 86.9375 20.8145C88.0332 20.8145 88.8916 21.0898 89.5127 21.6406C90.1338 22.1855 90.4561 22.9385 90.4795 23.8994V28.2764C90.4795 29.1494 90.5908 29.8438 90.8135 30.3594V30.5H89.1084ZM86.4102 29.2607C86.9199 29.2607 87.4033 29.1289 87.8604 28.8652C88.3174 28.6016 88.6485 28.2588 88.8535 27.8369V25.8857H87.5791C85.5869 25.8857 84.5908 26.4688 84.5908 27.6348C84.5908 28.1445 84.7608 28.543 85.1006 28.8301C85.4405 29.1172 85.877 29.2607 86.4102 29.2607ZM92.6416 25.666C92.6416 24.1836 92.9844 23.0059 93.6699 22.1328C94.3555 21.2539 95.2637 20.8145 96.3946 20.8145C97.5547 20.8145 98.46 21.2246 99.1104 22.0449L99.1895 20.9902H100.675V30.2715C100.675 31.502 100.309 32.4717 99.5762 33.1807C98.8496 33.8896 97.8711 34.2441 96.6406 34.2441C95.9551 34.2441 95.2842 34.0977 94.628 33.8047C93.9717 33.5117 93.4707 33.1104 93.125 32.6006L93.9688 31.625C94.666 32.4863 95.5186 32.917 96.5264 32.917C97.3174 32.917 97.9326 32.6943 98.3721 32.249C98.8174 31.8037 99.0401 31.1768 99.0401 30.3682V29.5508C98.3897 30.3008 97.502 30.6758 96.377 30.6758C95.2637 30.6758 94.3614 30.2275 93.6699 29.3311C92.9844 28.4346 92.6416 27.2129 92.6416 25.666ZM94.2764 25.8506C94.2764 26.9229 94.4961 27.7666 94.9356 28.3818C95.375 28.9912 95.9903 29.2959 96.7813 29.2959C97.8067 29.2959 98.5596 28.8301 99.0401 27.8984V23.5566C98.542 22.6484 97.7949 22.1943 96.7989 22.1943C96.0078 22.1943 95.3897 22.502 94.9444 23.1172C94.499 23.7324 94.2764 24.6436 94.2764 25.8506ZM107.732 22.4492C107.486 22.4082 107.22 22.3877 106.933 22.3877C105.866 22.3877 105.143 22.8418 104.762 23.75V30.5H103.136V20.9902H104.718L104.744 22.0889C105.277 21.2393 106.033 20.8145 107.012 20.8145C107.328 20.8145 107.568 20.8555 107.732 20.9375V22.4492ZM114.755 30.5C114.661 30.3125 114.585 29.9785 114.526 29.498C113.771 30.2832 112.868 30.6758 111.819 30.6758C110.882 30.6758 110.111 30.4121 109.508 29.8848C108.91 29.3516 108.611 28.6777 108.611 27.8633C108.611 26.873 108.986 26.1055 109.736 25.5605C110.492 25.0098 111.553 24.7344 112.918 24.7344H114.5V23.9873C114.5 23.4189 114.33 22.9678 113.99 22.6338C113.65 22.2939 113.149 22.124 112.487 22.124C111.907 22.124 111.421 22.2705 111.028 22.5635C110.636 22.8564 110.439 23.2109 110.439 23.627H108.805C108.805 23.1523 108.972 22.6953 109.306 22.2559C109.646 21.8105 110.103 21.459 110.677 21.2012C111.257 20.9434 111.893 20.8145 112.584 20.8145C113.68 20.8145 114.538 21.0898 115.159 21.6406C115.78 22.1855 116.103 22.9385 116.126 23.8994V28.2764C116.126 29.1494 116.237 29.8438 116.46 30.3594V30.5H114.755ZM112.057 29.2607C112.566 29.2607 113.05 29.1289 113.507 28.8652C113.964 28.6016 114.295 28.2588 114.5 27.8369V25.8857H113.226C111.233 25.8857 110.237 26.4688 110.237 27.6348C110.237 28.1445 110.407 28.543 110.747 28.8301C111.087 29.1172 111.523 29.2607 112.057 29.2607ZM120.204 20.9902L120.248 22.0449C120.945 21.2246 121.886 20.8145 123.069 20.8145C124.399 20.8145 125.305 21.3242 125.785 22.3438C126.102 21.8867 126.512 21.5176 127.016 21.2363C127.525 20.9551 128.126 20.8145 128.817 20.8145C130.903 20.8145 131.964 21.9189 131.999 24.1279V30.5H130.373V24.2246C130.373 23.5449 130.218 23.0381 129.907 22.7041C129.597 22.3643 129.075 22.1943 128.343 22.1943C127.739 22.1943 127.238 22.376 126.84 22.7393C126.441 23.0967 126.21 23.5801 126.146 24.1895V30.5H124.511V24.2686C124.511 22.8857 123.834 22.1943 122.48 22.1943C121.414 22.1943 120.685 22.6484 120.292 23.5566V30.5H118.666V20.9902H120.204Z" fill="#212121"/>
<defs>
<radialGradient id="paint0_radial_1108_415" cx="0" cy="0" r="1" gradientUnits="userSpaceOnUse" gradientTransform="translate(17.5533 35.4742) scale(30.4711)">
<stop offset="0.09" stop-color="#FA8F21"/>
<stop offset="0.78" stop-color="#D82D7E"/>
</radialGradient>
<radialGradient id="paint1_radial_1108_415" cx="0" cy="0" r="1" gradientUnits="userSpaceOnUse" gradientTransform="translate(32.624 34.7036) scale(26.8148)">
<stop offset="0.64" stop-color="#8C3AAA" stop-opacity="0"/>
<stop offset="1" stop-color="#8C3AAA"/>
</radialGradient>
</defs>
</svg>
