<svg width="120" height="48" viewBox="0 0 120 48" fill="none" xmlns="http://www.w3.org/2000/svg">
<path d="M112 0H8C3.58172 0 0 3.58172 0 8V40C0 44.4183 3.58172 48 8 48H112C116.418 48 120 44.4183 120 40V8C120 3.58172 116.418 0 112 0Z" fill="#ECECEC"/>
<path d="M28 36C34.6274 36 40 30.6274 40 24C40 17.3726 34.6274 12 28 12C21.3726 12 16 17.3726 16 24C16 30.6274 21.3726 36 28 36Z" fill="#FF4500"/>
<path d="M35.9832 24.1149C35.9832 23.1421 35.1966 22.3695 34.2379 22.3695C33.785 22.3689 33.3494 22.5432 33.0219 22.856C31.8202 21.9975 30.1749 21.4397 28.3438 21.3682L29.1448 17.62L31.7485 18.1778C31.7773 18.8359 32.3208 19.3653 32.9933 19.3653C33.68 19.3653 34.2379 18.8075 34.2379 18.1205C34.2379 17.4339 33.68 16.876 32.9933 16.876C32.507 16.876 32.0776 17.1621 31.8773 17.577L28.9733 16.9618C28.8875 16.9474 28.8016 16.9618 28.7443 17.0048C28.6728 17.0477 28.6299 17.1191 28.6158 17.205L27.7285 21.3823C25.8688 21.4397 24.1949 21.9975 22.979 22.8703C22.6515 22.5575 22.2158 22.3833 21.7629 22.384C20.7901 22.384 20.0176 23.1706 20.0176 24.1293C20.0176 24.8445 20.4467 25.4453 21.0477 25.7173C21.0185 25.8922 21.0042 26.0693 21.0048 26.2466C21.0048 28.936 24.1379 31.125 28.0005 31.125C31.8632 31.125 34.9963 28.9504 34.9963 26.2466C34.9962 26.0693 34.9818 25.8923 34.9534 25.7173C35.5541 25.4453 35.9832 24.8301 35.9832 24.1149ZM23.9946 25.3594C23.9946 24.6728 24.5525 24.1149 25.2395 24.1149C25.9261 24.1149 26.484 24.6727 26.484 25.3594C26.484 26.0461 25.9262 26.6042 25.2395 26.6042C24.5526 26.6183 23.9946 26.0461 23.9946 25.3594ZM30.9619 28.6642C30.1035 29.5226 28.4725 29.5799 28.0005 29.5799C27.5141 29.5799 25.8832 29.5082 25.0389 28.6642C24.9104 28.5355 24.9104 28.3351 25.0389 28.2064C25.1677 28.0779 25.368 28.0779 25.4968 28.2064C26.0406 28.7501 27.1851 28.936 28.0005 28.936C28.816 28.936 29.9747 28.7501 30.504 28.2064C30.6328 28.0779 30.8331 28.0779 30.9619 28.2064C31.0762 28.3351 31.0762 28.5355 30.9619 28.6642ZM30.7328 26.6184C30.0461 26.6184 29.4883 26.0606 29.4883 25.3738C29.4883 24.6871 30.0461 24.1293 30.7328 24.1293C31.4197 24.1293 31.9776 24.6871 31.9776 25.3738C31.9776 26.046 31.4197 26.6184 30.7328 26.6184Z" fill="#ECECEC"/>
<path d="M58.1787 25.3232H55.1729V30.5H53.4766V17.7031H57.7129C59.1543 17.7031 60.2617 18.0312 61.0352 18.6875C61.8145 19.3438 62.2041 20.2988 62.2041 21.5527C62.2041 22.3496 61.9873 23.0439 61.5537 23.6357C61.126 24.2275 60.5283 24.6699 59.7607 24.9629L62.7666 30.3945V30.5H60.9561L58.1787 25.3232ZM55.1729 23.9434H57.7656C58.6035 23.9434 59.2686 23.7266 59.7607 23.293C60.2588 22.8594 60.5078 22.2793 60.5078 21.5527C60.5078 20.7617 60.2705 20.1553 59.7959 19.7334C59.3271 19.3115 58.6475 19.0977 57.7568 19.0918H55.1729V23.9434ZM68.2686 30.6758C66.9795 30.6758 65.9307 30.2539 65.1221 29.4102C64.3135 28.5605 63.9092 27.4268 63.9092 26.0088V25.71C63.9092 24.7666 64.0879 23.9258 64.4453 23.1875C64.8086 22.4434 65.3125 21.8633 65.957 21.4473C66.6074 21.0254 67.3105 20.8145 68.0664 20.8145C69.3027 20.8145 70.2637 21.2217 70.9492 22.0361C71.6348 22.8506 71.9775 24.0166 71.9775 25.5342V26.2109H65.5352C65.5586 27.1484 65.8311 27.9072 66.3525 28.4873C66.8799 29.0615 67.5479 29.3486 68.3564 29.3486C68.9307 29.3486 69.417 29.2314 69.8154 28.9971C70.2139 28.7627 70.5625 28.4521 70.8613 28.0654L71.8545 28.8389C71.0576 30.0635 69.8623 30.6758 68.2686 30.6758ZM68.0664 22.1504C67.4102 22.1504 66.8594 22.3906 66.4141 22.8711C65.9688 23.3457 65.6934 24.0137 65.5879 24.875H70.3516V24.752C70.3047 23.9258 70.082 23.2871 69.6836 22.8359C69.2852 22.3789 68.7461 22.1504 68.0664 22.1504ZM73.4717 25.666C73.4717 24.207 73.8174 23.0352 74.5088 22.1504C75.2002 21.2598 76.1055 20.8145 77.2246 20.8145C78.3379 20.8145 79.2197 21.1953 79.8701 21.957V17H81.4961V30.5H80.002L79.9229 29.4805C79.2725 30.2773 78.3672 30.6758 77.207 30.6758C76.1055 30.6758 75.2061 30.2246 74.5088 29.3223C73.8174 28.4199 73.4717 27.2422 73.4717 25.7891V25.666ZM75.0977 25.8506C75.0977 26.9287 75.3203 27.7725 75.7656 28.3818C76.2109 28.9912 76.8262 29.2959 77.6113 29.2959C78.6426 29.2959 79.3955 28.833 79.8701 27.9072V23.5391C79.3838 22.6426 78.6367 22.1943 77.6289 22.1943C76.832 22.1943 76.2109 22.502 75.7656 23.1172C75.3203 23.7324 75.0977 24.6436 75.0977 25.8506ZM83.6318 25.666C83.6318 24.207 83.9775 23.0352 84.6689 22.1504C85.3604 21.2598 86.2656 20.8145 87.3848 20.8145C88.498 20.8145 89.3799 21.1953 90.0303 21.957V17H91.6562V30.5H90.1621L90.083 29.4805C89.4326 30.2773 88.5273 30.6758 87.3672 30.6758C86.2656 30.6758 85.3662 30.2246 84.6689 29.3223C83.9775 28.4199 83.6318 27.2422 83.6318 25.7891V25.666ZM85.2578 25.8506C85.2578 26.9287 85.4805 27.7725 85.9258 28.3818C86.3711 28.9912 86.9863 29.2959 87.7715 29.2959C88.8027 29.2959 89.5557 28.833 90.0303 27.9072V23.5391C89.5439 22.6426 88.7969 22.1943 87.7891 22.1943C86.9922 22.1943 86.3711 22.502 85.9258 23.1172C85.4805 23.7324 85.2578 24.6436 85.2578 25.8506ZM95.9541 30.5H94.3281V20.9902H95.9541V30.5ZM94.1963 18.4678C94.1963 18.2041 94.2754 17.9814 94.4336 17.7998C94.5977 17.6182 94.8379 17.5273 95.1543 17.5273C95.4707 17.5273 95.7109 17.6182 95.875 17.7998C96.0391 17.9814 96.1211 18.2041 96.1211 18.4678C96.1211 18.7314 96.0391 18.9512 95.875 19.127C95.7109 19.3027 95.4707 19.3906 95.1543 19.3906C94.8379 19.3906 94.5977 19.3027 94.4336 19.127C94.2754 18.9512 94.1963 18.7314 94.1963 18.4678ZM100.771 18.6875V20.9902H102.546V22.2471H100.771V28.1445C100.771 28.5254 100.85 28.8125 101.008 29.0059C101.166 29.1934 101.436 29.2871 101.816 29.2871C102.004 29.2871 102.262 29.252 102.59 29.1816V30.5C102.162 30.6172 101.746 30.6758 101.342 30.6758C100.615 30.6758 100.067 30.4561 99.6982 30.0166C99.3291 29.5771 99.1445 28.9531 99.1445 28.1445V22.2471H97.4131V20.9902H99.1445V18.6875H100.771Z" fill="#212121"/>
</svg>
