<svg width="194" height="48" viewBox="0 0 194 48" fill="none" xmlns="http://www.w3.org/2000/svg">
<path d="M186 0H8C3.58172 0 0 3.58172 0 8V40C0 44.4183 3.58172 48 8 48H186C190.418 48 194 44.4183 194 40V8C194 3.58172 190.418 0 186 0Z" fill="#ECECEC"/>
<path fill-rule="evenodd" clip-rule="evenodd" d="M40 24C40 30.627 34.627 36 28 36C21.373 36 16 30.627 16 24C16 17.373 21.373 12 28 12C34.627 12 40 17.373 40 24ZM28.43 20.859C27.263 21.344 24.93 22.349 21.432 23.873C20.864 24.099 20.566 24.32 20.539 24.536C20.493 24.902 20.951 25.046 21.573 25.241C21.658 25.268 21.746 25.295 21.836 25.325C22.449 25.524 23.273 25.757 23.701 25.766C24.09 25.774 24.524 25.614 25.003 25.286C28.271 23.079 29.958 21.964 30.064 21.94C30.139 21.923 30.243 21.901 30.313 21.964C30.383 22.026 30.376 22.144 30.369 22.176C30.323 22.369 28.529 24.038 27.599 24.902C27.309 25.171 27.104 25.362 27.062 25.406C26.968 25.503 26.872 25.596 26.78 25.685C26.21 26.233 25.784 26.645 26.804 27.317C27.294 27.64 27.686 27.907 28.077 28.173C28.504 28.464 28.93 28.754 29.482 29.116C29.622 29.208 29.756 29.303 29.887 29.396C30.384 29.751 30.831 30.069 31.383 30.019C31.703 29.989 32.035 29.688 32.203 28.789C32.6 26.663 33.382 22.059 33.563 20.161C33.574 20.0034 33.5673 19.8451 33.543 19.689C33.5285 19.5629 33.4671 19.4469 33.371 19.364C33.228 19.247 33.006 19.222 32.906 19.224C32.455 19.232 31.763 19.473 28.43 20.859Z" fill="#1D9BF0"/>
<path d="M62.328 19.0918H58.2148V30.5H56.5361V19.0918H52.4316V17.7031H62.328V19.0918ZM67.039 30.6758C65.7499 30.6758 64.7011 30.2539 63.8925 29.4102C63.0839 28.5605 62.6796 27.4268 62.6796 26.0088V25.71C62.6796 24.7666 62.8583 23.9258 63.2157 23.1875C63.579 22.4434 64.0829 21.8633 64.7275 21.4473C65.3779 21.0254 66.081 20.8145 66.8368 20.8145C68.0732 20.8145 69.0341 21.2217 69.7197 22.0361C70.4052 22.8506 70.748 24.0166 70.748 25.5342V26.2109H64.3056C64.329 27.1484 64.6015 27.9072 65.123 28.4873C65.6503 29.0615 66.3183 29.3486 67.1269 29.3486C67.7011 29.3486 68.1874 29.2314 68.5859 28.9971C68.9843 28.7627 69.3329 28.4521 69.6318 28.0654L70.6249 28.8389C69.828 30.0635 68.6327 30.6758 67.039 30.6758ZM66.8368 22.1504C66.1806 22.1504 65.6298 22.3906 65.1845 22.8711C64.7392 23.3457 64.4638 24.0137 64.3583 24.875H69.122V24.752C69.0751 23.9258 68.8525 23.2871 68.454 22.8359C68.0556 22.3789 67.5165 22.1504 66.8368 22.1504ZM74.4042 30.5H72.7782V17H74.4042V30.5ZM80.9609 30.6758C79.6718 30.6758 78.623 30.2539 77.8144 29.4102C77.0058 28.5605 76.6015 27.4268 76.6015 26.0088V25.71C76.6015 24.7666 76.7802 23.9258 77.1376 23.1875C77.5009 22.4434 78.0048 21.8633 78.6493 21.4473C79.2997 21.0254 80.0029 20.8145 80.7587 20.8145C81.995 20.8145 82.956 21.2217 83.6415 22.0361C84.3271 22.8506 84.6698 24.0166 84.6698 25.5342V26.2109H78.2275C78.2509 27.1484 78.5234 27.9072 79.0448 28.4873C79.5722 29.0615 80.2402 29.3486 81.0488 29.3486C81.623 29.3486 82.1093 29.2314 82.5077 28.9971C82.9062 28.7627 83.2548 28.4521 83.5536 28.0654L84.5468 28.8389C83.7499 30.0635 82.5546 30.6758 80.9609 30.6758ZM80.7587 22.1504C80.1025 22.1504 79.5517 22.3906 79.1064 22.8711C78.6611 23.3457 78.3857 24.0137 78.2802 24.875H83.0439V24.752C82.997 23.9258 82.7743 23.2871 82.3759 22.8359C81.9775 22.3789 81.4384 22.1504 80.7587 22.1504ZM86.1728 25.666C86.1728 24.1836 86.5155 23.0059 87.2011 22.1328C87.8866 21.2539 88.7948 20.8145 89.9257 20.8145C91.0859 20.8145 91.9911 21.2246 92.6415 22.0449L92.7206 20.9902H94.206V30.2715C94.206 31.502 93.8398 32.4717 93.1073 33.1807C92.3808 33.8896 91.4023 34.2441 90.1718 34.2441C89.4863 34.2441 88.8154 34.0977 88.1591 33.8047C87.5029 33.5117 87.0019 33.1104 86.6562 32.6006L87.4999 31.625C88.1972 32.4863 89.0497 32.917 90.0575 32.917C90.8486 32.917 91.4638 32.6943 91.9032 32.249C92.3486 31.8037 92.5712 31.1768 92.5712 30.3682V29.5508C91.9208 30.3008 91.0331 30.6758 89.9081 30.6758C88.7948 30.6758 87.8925 30.2275 87.2011 29.3311C86.5155 28.4346 86.1728 27.2129 86.1728 25.666ZM87.8075 25.8506C87.8075 26.9229 88.0273 27.7666 88.4667 28.3818C88.9062 28.9912 89.5214 29.2959 90.3124 29.2959C91.3378 29.2959 92.0907 28.8301 92.5712 27.8984V23.5566C92.0732 22.6484 91.3261 22.1943 90.33 22.1943C89.539 22.1943 88.9208 22.502 88.4755 23.1172C88.0302 23.7324 87.8075 24.6436 87.8075 25.8506ZM101.264 22.4492C101.018 22.4082 100.751 22.3877 100.464 22.3877C99.3974 22.3877 98.6738 22.8418 98.2929 23.75V30.5H96.6669V20.9902H98.2489L98.2753 22.0889C98.8085 21.2393 99.5644 20.8145 100.543 20.8145C100.859 20.8145 101.1 20.8555 101.264 20.9375V22.4492ZM108.286 30.5C108.192 30.3125 108.116 29.9785 108.058 29.498C107.302 30.2832 106.399 30.6758 105.351 30.6758C104.413 30.6758 103.643 30.4121 103.039 29.8848C102.441 29.3516 102.143 28.6777 102.143 27.8633C102.143 26.873 102.518 26.1055 103.268 25.5605C104.023 25.0098 105.084 24.7344 106.449 24.7344H108.031V23.9873C108.031 23.4189 107.861 22.9678 107.522 22.6338C107.182 22.2939 106.681 22.124 106.019 22.124C105.439 22.124 104.952 22.2705 104.56 22.5635C104.167 22.8564 103.971 23.2109 103.971 23.627H102.336C102.336 23.1523 102.503 22.6953 102.837 22.2559C103.177 21.8105 103.634 21.459 104.208 21.2012C104.788 20.9434 105.424 20.8145 106.115 20.8145C107.211 20.8145 108.069 21.0898 108.69 21.6406C109.312 22.1855 109.634 22.9385 109.657 23.8994V28.2764C109.657 29.1494 109.769 29.8438 109.991 30.3594V30.5H108.286ZM105.588 29.2607C106.098 29.2607 106.581 29.1289 107.038 28.8652C107.495 28.6016 107.826 28.2588 108.031 27.8369V25.8857H106.757C104.765 25.8857 103.769 26.4688 103.769 27.6348C103.769 28.1445 103.939 28.543 104.278 28.8301C104.618 29.1172 105.055 29.2607 105.588 29.2607ZM113.735 20.9902L113.779 22.0449C114.477 21.2246 115.417 20.8145 116.601 20.8145C117.931 20.8145 118.836 21.3242 119.316 22.3438C119.633 21.8867 120.043 21.5176 120.547 21.2363C121.057 20.9551 121.657 20.8145 122.349 20.8145C124.435 20.8145 125.495 21.9189 125.53 24.1279V30.5H123.904V24.2246C123.904 23.5449 123.749 23.0381 123.439 22.7041C123.128 22.3643 122.606 22.1943 121.874 22.1943C121.271 22.1943 120.77 22.376 120.371 22.7393C119.973 23.0967 119.741 23.5801 119.677 24.1895V30.5H118.042V24.2686C118.042 22.8857 117.365 22.1943 116.012 22.1943C114.945 22.1943 114.216 22.6484 113.823 23.5566V30.5H112.197V20.9902H113.735ZM135.84 25.7275H131.551V24.4004H135.84V25.7275ZM151.563 26.4395C151.405 27.793 150.904 28.8389 150.061 29.5771C149.223 30.3096 148.106 30.6758 146.712 30.6758C145.2 30.6758 143.987 30.1338 143.073 29.0498C142.165 27.9658 141.711 26.5156 141.711 24.6992V23.4688C141.711 22.2793 141.922 21.2334 142.344 20.3311C142.772 19.4287 143.375 18.7373 144.154 18.2568C144.934 17.7705 145.836 17.5273 146.861 17.5273C148.221 17.5273 149.311 17.9082 150.131 18.6699C150.951 19.4258 151.429 20.4746 151.563 21.8164H149.867C149.721 20.7969 149.401 20.0586 148.909 19.6016C148.423 19.1445 147.74 18.916 146.861 18.916C145.783 18.916 144.937 19.3145 144.321 20.1113C143.712 20.9082 143.407 22.042 143.407 23.5127V24.752C143.407 26.1406 143.697 27.2451 144.277 28.0654C144.857 28.8857 145.669 29.2959 146.712 29.2959C147.649 29.2959 148.367 29.085 148.865 28.6631C149.369 28.2354 149.703 27.4941 149.867 26.4395H151.563ZM155.246 22.1416C155.967 21.2568 156.904 20.8145 158.059 20.8145C160.068 20.8145 161.082 21.9482 161.1 24.2158V30.5H159.474V24.207C159.468 23.5215 159.31 23.0146 158.999 22.6865C158.694 22.3584 158.217 22.1943 157.566 22.1943C157.039 22.1943 156.576 22.335 156.178 22.6162C155.779 22.8975 155.469 23.2666 155.246 23.7236V30.5H153.62V17H155.246V22.1416ZM169.405 30.5C169.312 30.3125 169.235 29.9785 169.177 29.498C168.421 30.2832 167.519 30.6758 166.47 30.6758C165.532 30.6758 164.762 30.4121 164.158 29.8848C163.561 29.3516 163.262 28.6777 163.262 27.8633C163.262 26.873 163.637 26.1055 164.387 25.5605C165.143 25.0098 166.203 24.7344 167.568 24.7344H169.15V23.9873C169.15 23.4189 168.98 22.9678 168.641 22.6338C168.301 22.2939 167.8 22.124 167.138 22.124C166.558 22.124 166.071 22.2705 165.679 22.5635C165.286 22.8564 165.09 23.2109 165.09 23.627H163.455C163.455 23.1523 163.622 22.6953 163.956 22.2559C164.296 21.8105 164.753 21.459 165.327 21.2012C165.907 20.9434 166.543 20.8145 167.234 20.8145C168.33 20.8145 169.189 21.0898 169.81 21.6406C170.431 22.1855 170.753 22.9385 170.776 23.8994V28.2764C170.776 29.1494 170.888 29.8438 171.11 30.3594V30.5H169.405ZM166.707 29.2607C167.217 29.2607 167.7 29.1289 168.157 28.8652C168.614 28.6016 168.945 28.2588 169.15 27.8369V25.8857H167.876C165.884 25.8857 164.888 26.4688 164.888 27.6348C164.888 28.1445 165.058 28.543 165.397 28.8301C165.737 29.1172 166.174 29.2607 166.707 29.2607ZM175.531 18.6875V20.9902H177.307V22.2471H175.531V28.1445C175.531 28.5254 175.61 28.8125 175.769 29.0059C175.927 29.1934 176.196 29.2871 176.577 29.2871C176.765 29.2871 177.022 29.252 177.351 29.1816V30.5C176.923 30.6172 176.507 30.6758 176.103 30.6758C175.376 30.6758 174.828 30.4561 174.459 30.0166C174.09 29.5771 173.905 28.9531 173.905 28.1445V22.2471H172.174V20.9902H173.905V18.6875H175.531Z" fill="#212121"/>
</svg>
