<svg width="143" height="48" viewBox="0 0 143 48" fill="none" xmlns="http://www.w3.org/2000/svg">
<rect width="143" height="48" rx="8" fill="#ECECEC"/>
<path fill-rule="evenodd" clip-rule="evenodd" d="M40 24C40 30.627 34.627 36 28 36C21.373 36 16 30.627 16 24C16 17.373 21.373 12 28 12C34.627 12 40 17.373 40 24ZM28.43 20.859C27.263 21.344 24.93 22.349 21.432 23.873C20.864 24.099 20.566 24.32 20.539 24.536C20.493 24.902 20.951 25.046 21.573 25.241C21.658 25.268 21.746 25.295 21.836 25.325C22.449 25.524 23.273 25.757 23.701 25.766C24.09 25.774 24.524 25.614 25.003 25.286C28.271 23.079 29.958 21.964 30.064 21.94C30.139 21.923 30.243 21.901 30.313 21.964C30.383 22.026 30.376 22.144 30.369 22.176C30.323 22.369 28.529 24.038 27.599 24.902C27.309 25.171 27.104 25.362 27.062 25.406C26.968 25.503 26.872 25.596 26.78 25.685C26.21 26.233 25.784 26.645 26.804 27.317C27.294 27.64 27.686 27.907 28.077 28.173C28.504 28.464 28.93 28.754 29.482 29.116C29.622 29.208 29.756 29.303 29.887 29.396C30.384 29.751 30.831 30.069 31.383 30.019C31.703 29.989 32.035 29.688 32.203 28.789C32.6 26.663 33.382 22.059 33.563 20.161C33.574 20.0034 33.5673 19.8451 33.543 19.689C33.5284 19.5629 33.4671 19.4469 33.371 19.364C33.228 19.247 33.006 19.222 32.906 19.224C32.455 19.232 31.763 19.473 28.43 20.859V20.859Z" fill="#1D9BF0"/>
<path d="M58.2139 17.7031V30.5H56.5439V17.7031H58.2139ZM62.3271 17.7031V19.0918H52.4395V17.7031H62.3271ZM67.0469 30.6758C66.3848 30.6758 65.7842 30.5645 65.2451 30.3418C64.7119 30.1133 64.252 29.7939 63.8652 29.3838C63.4844 28.9736 63.1914 28.4873 62.9863 27.9248C62.7812 27.3623 62.6787 26.7471 62.6787 26.0791V25.71C62.6787 24.9365 62.793 24.248 63.0215 23.6445C63.25 23.0352 63.5605 22.5195 63.9531 22.0977C64.3457 21.6758 64.791 21.3564 65.2891 21.1396C65.7871 20.9229 66.3027 20.8145 66.8359 20.8145C67.5156 20.8145 68.1016 20.9316 68.5938 21.166C69.0918 21.4004 69.499 21.7285 69.8154 22.1504C70.1318 22.5664 70.3662 23.0586 70.5186 23.627C70.6709 24.1895 70.7471 24.8047 70.7471 25.4727V26.2021H63.6455V24.875H69.1211V24.752C69.0977 24.3301 69.0098 23.9199 68.8574 23.5215C68.7109 23.123 68.4766 22.7949 68.1543 22.5371C67.832 22.2793 67.3926 22.1504 66.8359 22.1504C66.4668 22.1504 66.127 22.2295 65.8164 22.3877C65.5059 22.54 65.2393 22.7686 65.0166 23.0732C64.7939 23.3779 64.6211 23.75 64.498 24.1895C64.375 24.6289 64.3135 25.1357 64.3135 25.71V26.0791C64.3135 26.5303 64.375 26.9551 64.498 27.3535C64.627 27.7461 64.8115 28.0918 65.0518 28.3906C65.2979 28.6895 65.5938 28.9238 65.9395 29.0938C66.291 29.2637 66.6895 29.3486 67.1348 29.3486C67.709 29.3486 68.1953 29.2314 68.5938 28.9971C68.9922 28.7627 69.3408 28.4492 69.6396 28.0566L70.624 28.8389C70.4189 29.1494 70.1582 29.4453 69.8418 29.7266C69.5254 30.0078 69.1357 30.2363 68.6729 30.4121C68.2158 30.5879 67.6738 30.6758 67.0469 30.6758ZM74.4121 17V30.5H72.7773V17H74.4121ZM80.9688 30.6758C80.3066 30.6758 79.7061 30.5645 79.167 30.3418C78.6338 30.1133 78.1738 29.7939 77.7871 29.3838C77.4062 28.9736 77.1133 28.4873 76.9082 27.9248C76.7031 27.3623 76.6006 26.7471 76.6006 26.0791V25.71C76.6006 24.9365 76.7148 24.248 76.9434 23.6445C77.1719 23.0352 77.4824 22.5195 77.875 22.0977C78.2676 21.6758 78.7129 21.3564 79.2109 21.1396C79.709 20.9229 80.2246 20.8145 80.7578 20.8145C81.4375 20.8145 82.0234 20.9316 82.5156 21.166C83.0137 21.4004 83.4209 21.7285 83.7373 22.1504C84.0537 22.5664 84.2881 23.0586 84.4404 23.627C84.5928 24.1895 84.6689 24.8047 84.6689 25.4727V26.2021H77.5674V24.875H83.043V24.752C83.0195 24.3301 82.9316 23.9199 82.7793 23.5215C82.6328 23.123 82.3984 22.7949 82.0762 22.5371C81.7539 22.2793 81.3145 22.1504 80.7578 22.1504C80.3887 22.1504 80.0488 22.2295 79.7383 22.3877C79.4277 22.54 79.1611 22.7686 78.9385 23.0732C78.7158 23.3779 78.543 23.75 78.4199 24.1895C78.2969 24.6289 78.2354 25.1357 78.2354 25.71V26.0791C78.2354 26.5303 78.2969 26.9551 78.4199 27.3535C78.5488 27.7461 78.7334 28.0918 78.9736 28.3906C79.2197 28.6895 79.5156 28.9238 79.8613 29.0938C80.2129 29.2637 80.6113 29.3486 81.0566 29.3486C81.6309 29.3486 82.1172 29.2314 82.5156 28.9971C82.9141 28.7627 83.2627 28.4492 83.5615 28.0566L84.5459 28.8389C84.3408 29.1494 84.0801 29.4453 83.7637 29.7266C83.4473 30.0078 83.0576 30.2363 82.5947 30.4121C82.1377 30.5879 81.5957 30.6758 80.9688 30.6758ZM92.7285 20.9902H94.2051V30.2979C94.2051 31.1357 94.0352 31.8506 93.6953 32.4424C93.3555 33.0342 92.8809 33.4824 92.2715 33.7871C91.668 34.0977 90.9707 34.2529 90.1797 34.2529C89.8516 34.2529 89.4648 34.2002 89.0195 34.0947C88.5801 33.9951 88.1465 33.8223 87.7188 33.5762C87.2969 33.3359 86.9424 33.0107 86.6553 32.6006L87.5078 31.6338C87.9062 32.1143 88.3223 32.4482 88.7559 32.6357C89.1953 32.8232 89.6289 32.917 90.0566 32.917C90.5723 32.917 91.0176 32.8203 91.3926 32.627C91.7676 32.4336 92.0576 32.1465 92.2627 31.7656C92.4736 31.3906 92.5791 30.9277 92.5791 30.377V23.082L92.7285 20.9902ZM86.1807 25.8506V25.666C86.1807 24.9395 86.2656 24.2803 86.4355 23.6885C86.6113 23.0908 86.8604 22.5781 87.1826 22.1504C87.5107 21.7227 87.9062 21.3945 88.3691 21.166C88.832 20.9316 89.3535 20.8145 89.9336 20.8145C90.5312 20.8145 91.0527 20.9199 91.498 21.1309C91.9492 21.3359 92.3301 21.6377 92.6406 22.0361C92.957 22.4287 93.2061 22.9033 93.3877 23.46C93.5693 24.0166 93.6953 24.6465 93.7656 25.3496V26.1582C93.7012 26.8555 93.5752 27.4824 93.3877 28.0391C93.2061 28.5957 92.957 29.0703 92.6406 29.4629C92.3301 29.8555 91.9492 30.1572 91.498 30.3682C91.0469 30.5732 90.5195 30.6758 89.916 30.6758C89.3477 30.6758 88.832 30.5557 88.3691 30.3154C87.9121 30.0752 87.5195 29.7383 87.1914 29.3047C86.8633 28.8711 86.6113 28.3613 86.4355 27.7754C86.2656 27.1836 86.1807 26.542 86.1807 25.8506ZM87.8066 25.666V25.8506C87.8066 26.3252 87.8535 26.7705 87.9473 27.1865C88.0469 27.6025 88.1963 27.9688 88.3955 28.2852C88.6006 28.6016 88.8613 28.8506 89.1777 29.0322C89.4941 29.208 89.8721 29.2959 90.3115 29.2959C90.8506 29.2959 91.2959 29.1816 91.6475 28.9531C91.999 28.7246 92.2773 28.4229 92.4824 28.0479C92.6934 27.6729 92.8574 27.2656 92.9746 26.8262V24.708C92.9102 24.3857 92.8105 24.0752 92.6758 23.7764C92.5469 23.4717 92.377 23.2021 92.166 22.9678C91.9609 22.7275 91.7061 22.5371 91.4014 22.3965C91.0967 22.2559 90.7393 22.1855 90.3291 22.1855C89.8838 22.1855 89.5 22.2793 89.1777 22.4668C88.8613 22.6484 88.6006 22.9004 88.3955 23.2227C88.1963 23.5391 88.0469 23.9082 87.9473 24.3301C87.8535 24.7461 87.8066 25.1914 87.8066 25.666ZM98.3008 22.4844V30.5H96.6748V20.9902H98.2568L98.3008 22.4844ZM101.271 20.9375L101.263 22.4492C101.128 22.4199 100.999 22.4023 100.876 22.3965C100.759 22.3848 100.624 22.3789 100.472 22.3789C100.097 22.3789 99.7656 22.4375 99.4785 22.5547C99.1914 22.6719 98.9482 22.8359 98.749 23.0469C98.5498 23.2578 98.3916 23.5098 98.2744 23.8027C98.1631 24.0898 98.0898 24.4062 98.0547 24.752L97.5977 25.0156C97.5977 24.4414 97.6533 23.9023 97.7646 23.3984C97.8818 22.8945 98.0605 22.4492 98.3008 22.0625C98.541 21.6699 98.8457 21.3652 99.2148 21.1484C99.5898 20.9258 100.035 20.8145 100.551 20.8145C100.668 20.8145 100.803 20.8291 100.955 20.8584C101.107 20.8818 101.213 20.9082 101.271 20.9375ZM108.03 28.874V23.9785C108.03 23.6035 107.954 23.2783 107.802 23.0029C107.655 22.7217 107.433 22.5049 107.134 22.3525C106.835 22.2002 106.466 22.124 106.026 22.124C105.616 22.124 105.256 22.1943 104.945 22.335C104.641 22.4756 104.4 22.6602 104.225 22.8887C104.055 23.1172 103.97 23.3633 103.97 23.627H102.344C102.344 23.2871 102.432 22.9502 102.607 22.6162C102.783 22.2822 103.035 21.9805 103.363 21.7109C103.697 21.4355 104.096 21.2188 104.559 21.0605C105.027 20.8965 105.549 20.8145 106.123 20.8145C106.814 20.8145 107.424 20.9316 107.951 21.166C108.484 21.4004 108.9 21.7549 109.199 22.2295C109.504 22.6982 109.656 23.2871 109.656 23.9961V28.4258C109.656 28.7422 109.683 29.0791 109.735 29.4365C109.794 29.7939 109.879 30.1016 109.99 30.3594V30.5H108.294C108.212 30.3125 108.147 30.0635 108.101 29.7529C108.054 29.4365 108.03 29.1436 108.03 28.874ZM108.312 24.7344L108.329 25.877H106.686C106.223 25.877 105.81 25.915 105.446 25.9912C105.083 26.0615 104.778 26.1699 104.532 26.3164C104.286 26.4629 104.099 26.6475 103.97 26.8701C103.841 27.0869 103.776 27.3418 103.776 27.6348C103.776 27.9336 103.844 28.2061 103.979 28.4521C104.113 28.6982 104.315 28.8945 104.585 29.041C104.86 29.1816 105.197 29.252 105.596 29.252C106.094 29.252 106.533 29.1465 106.914 28.9355C107.295 28.7246 107.597 28.4668 107.819 28.1621C108.048 27.8574 108.171 27.5615 108.188 27.2744L108.883 28.0566C108.842 28.3027 108.73 28.5752 108.549 28.874C108.367 29.1729 108.124 29.46 107.819 29.7354C107.521 30.0049 107.163 30.2305 106.747 30.4121C106.337 30.5879 105.874 30.6758 105.358 30.6758C104.714 30.6758 104.148 30.5498 103.662 30.2979C103.182 30.0459 102.807 29.709 102.537 29.2871C102.273 28.8594 102.142 28.3818 102.142 27.8545C102.142 27.3447 102.241 26.8965 102.44 26.5098C102.64 26.1172 102.927 25.792 103.302 25.5342C103.677 25.2705 104.128 25.0713 104.655 24.9365C105.183 24.8018 105.771 24.7344 106.422 24.7344H108.312ZM113.831 22.8799V30.5H112.196V20.9902H113.743L113.831 22.8799ZM113.497 25.3848L112.741 25.3584C112.747 24.708 112.832 24.1074 112.996 23.5566C113.16 23 113.403 22.5166 113.726 22.1064C114.048 21.6963 114.449 21.3799 114.93 21.1572C115.41 20.9287 115.967 20.8145 116.6 20.8145C117.045 20.8145 117.455 20.8789 117.83 21.0078C118.205 21.1309 118.53 21.3271 118.806 21.5967C119.081 21.8662 119.295 22.2119 119.447 22.6338C119.6 23.0557 119.676 23.5654 119.676 24.1631V30.5H118.05V24.2422C118.05 23.7441 117.965 23.3457 117.795 23.0469C117.631 22.748 117.396 22.5312 117.092 22.3965C116.787 22.2559 116.43 22.1855 116.02 22.1855C115.539 22.1855 115.138 22.2705 114.815 22.4404C114.493 22.6104 114.235 22.8447 114.042 23.1436C113.849 23.4424 113.708 23.7852 113.62 24.1719C113.538 24.5527 113.497 24.957 113.497 25.3848ZM119.658 24.4883L118.568 24.8223C118.574 24.3008 118.659 23.7998 118.823 23.3193C118.993 22.8389 119.236 22.4111 119.553 22.0361C119.875 21.6611 120.271 21.3652 120.739 21.1484C121.208 20.9258 121.744 20.8145 122.348 20.8145C122.857 20.8145 123.309 20.8818 123.701 21.0166C124.1 21.1514 124.434 21.3594 124.703 21.6406C124.979 21.916 125.187 22.2705 125.327 22.7041C125.468 23.1377 125.538 23.6533 125.538 24.251V30.5H123.903V24.2334C123.903 23.7002 123.818 23.2871 123.648 22.9941C123.484 22.6953 123.25 22.4873 122.945 22.3701C122.646 22.2471 122.289 22.1855 121.873 22.1855C121.516 22.1855 121.199 22.2471 120.924 22.3701C120.648 22.4932 120.417 22.6631 120.229 22.8799C120.042 23.0908 119.898 23.334 119.799 23.6094C119.705 23.8848 119.658 24.1777 119.658 24.4883Z" fill="#212121"/>
</svg>
