<svg width="124" height="48" viewBox="0 0 124 48" fill="none" xmlns="http://www.w3.org/2000/svg">
<path d="M116 0H8C3.58172 0 0 3.58172 0 8V40C0 44.4183 3.58172 48 8 48H116C120.418 48 124 44.4183 124 40V8C124 3.58172 120.418 0 116 0Z" fill="#ECECEC"/>
<path d="M40 16.3758C39.1174 16.7663 38.157 17.0473 37.1676 17.1568C38.1948 16.5309 38.9639 15.542 39.3308 14.3758C38.367 14.9639 37.3111 15.3763 36.2101 15.5947C35.7499 15.09 35.1933 14.688 34.575 14.4136C33.9567 14.1393 33.2899 13.9985 32.6163 14C29.8906 14 27.6986 16.2663 27.6986 19.0473C27.6986 19.4379 27.7447 19.8284 27.8197 20.2042C23.7385 19.9852 20.0985 17.9852 17.6786 14.9231C17.2377 15.6956 17.0066 16.5752 17.0095 17.4704C17.0095 19.2219 17.8777 20.7663 19.2015 21.6746C18.4214 21.643 17.6594 21.4231 16.9778 21.0326V21.0947C16.9778 23.5473 18.6679 25.5799 20.9206 26.0473C20.4976 26.16 20.0625 26.2177 19.6255 26.2189C19.3054 26.2189 19.0025 26.1864 18.6968 26.142C19.3198 28.142 21.134 29.5947 23.2943 29.642C21.6041 31 19.4871 31.7988 17.1883 31.7988C16.7759 31.7988 16.3951 31.784 16 31.7367C18.1805 33.1716 20.7677 34 23.5539 34C32.599 34 37.5484 26.3136 37.5484 19.642C37.5484 19.4231 37.5484 19.2042 37.534 18.9852C38.4915 18.2663 39.3308 17.3757 40 16.3758Z" fill="#1D9BF0"/>
<path d="M62.328 19.0918H58.2148V30.5H56.5361V19.0918H52.4316V17.7031H62.328V19.0918ZM71.8818 28.2588L73.7099 20.9902H75.3359L72.5673 30.5H71.2489L68.9374 23.293L66.6874 30.5H65.3691L62.6093 20.9902H64.2265L66.0986 28.1094L68.3134 20.9902H69.623L71.8818 28.2588ZM78.7636 30.5H77.1376V20.9902H78.7636V30.5ZM77.0058 18.4678C77.0058 18.2041 77.0849 17.9814 77.2431 17.7998C77.4071 17.6182 77.6474 17.5273 77.9638 17.5273C78.2802 17.5273 78.5204 17.6182 78.6845 17.7998C78.8486 17.9814 78.9306 18.2041 78.9306 18.4678C78.9306 18.7314 78.8486 18.9512 78.6845 19.127C78.5204 19.3027 78.2802 19.3906 77.9638 19.3906C77.6474 19.3906 77.4071 19.3027 77.2431 19.127C77.0849 18.9512 77.0058 18.7314 77.0058 18.4678ZM83.58 18.6875V20.9902H85.3554V22.2471H83.58V28.1445C83.58 28.5254 83.6591 28.8125 83.8173 29.0059C83.9755 29.1934 84.245 29.2871 84.6259 29.2871C84.8134 29.2871 85.0712 29.252 85.3993 29.1816V30.5C84.9716 30.6172 84.5556 30.6758 84.1513 30.6758C83.4247 30.6758 82.8769 30.4561 82.5077 30.0166C82.1386 29.5771 81.954 28.9531 81.954 28.1445V22.2471H80.2226V20.9902H81.954V18.6875H83.58ZM89.4687 18.6875V20.9902H91.2441V22.2471H89.4687V28.1445C89.4687 28.5254 89.5478 28.8125 89.706 29.0059C89.8642 29.1934 90.1337 29.2871 90.5146 29.2871C90.7021 29.2871 90.9599 29.252 91.288 29.1816V30.5C90.8603 30.6172 90.4443 30.6758 90.04 30.6758C89.3134 30.6758 88.7655 30.4561 88.3964 30.0166C88.0273 29.5771 87.8427 28.9531 87.8427 28.1445V22.2471H86.1113V20.9902H87.8427V18.6875H89.4687ZM97.0976 30.6758C95.8085 30.6758 94.7597 30.2539 93.9511 29.4102C93.1425 28.5605 92.7382 27.4268 92.7382 26.0088V25.71C92.7382 24.7666 92.9169 23.9258 93.2743 23.1875C93.6376 22.4434 94.1415 21.8633 94.7861 21.4473C95.4364 21.0254 96.1396 20.8145 96.8954 20.8145C98.1318 20.8145 99.0927 21.2217 99.7782 22.0361C100.464 22.8506 100.807 24.0166 100.807 25.5342V26.2109H94.3642C94.3876 27.1484 94.6601 27.9072 95.1816 28.4873C95.7089 29.0615 96.3769 29.3486 97.1855 29.3486C97.7597 29.3486 98.246 29.2314 98.6445 28.9971C99.0429 28.7627 99.3915 28.4521 99.6904 28.0654L100.684 28.8389C99.8866 30.0635 98.6913 30.6758 97.0976 30.6758ZM96.8954 22.1504C96.2392 22.1504 95.6884 22.3906 95.2431 22.8711C94.7978 23.3457 94.5224 24.0137 94.4169 24.875H99.1806V24.752C99.1337 23.9258 98.9111 23.2871 98.5126 22.8359C98.1142 22.3789 97.5751 22.1504 96.8954 22.1504ZM107.293 22.4492C107.047 22.4082 106.78 22.3877 106.493 22.3877C105.427 22.3877 104.703 22.8418 104.322 23.75V30.5H102.696V20.9902H104.278L104.305 22.0889C104.838 21.2393 105.594 20.8145 106.572 20.8145C106.889 20.8145 107.129 20.8555 107.293 20.9375V22.4492Z" fill="#212121"/>
</svg>
