<svg width="130" height="48" viewBox="0 0 130 48" fill="none" xmlns="http://www.w3.org/2000/svg">
<rect width="130" height="48" rx="8" fill="#212121"/>
<path d="M35.636 16.442C34.1933 15.7595 32.6669 15.2746 31.0973 15C30.9018 15.3573 30.6734 15.838 30.5159 16.2203C28.8236 15.9631 27.1469 15.9631 25.4857 16.2203C25.3283 15.8381 25.0947 15.3573 24.8974 15C23.3263 15.2747 21.7986 15.7609 20.3552 16.4455C17.4828 20.8339 16.7041 25.1131 17.0934 29.3318C18.9986 30.7701 20.8448 31.6439 22.66 32.2157C23.1111 31.5885 23.5099 30.9244 23.8522 30.2305C23.2005 29.9796 22.5722 29.6705 21.9748 29.3067C22.132 29.1889 22.2855 29.0662 22.4351 28.9386C26.055 30.6504 29.9882 30.6504 33.5649 28.9386C33.7151 29.0653 33.8685 29.1881 34.0251 29.3067C33.4267 29.6714 32.7973 29.9812 32.1442 30.2323C32.4885 30.9291 32.8866 31.5937 33.3364 32.2174C35.1533 31.6457 37.0013 30.7719 38.9065 29.3318C39.3633 24.4413 38.1262 20.2013 35.636 16.4419V16.442ZM24.3454 26.7374C23.2587 26.7374 22.3676 25.7117 22.3676 24.4628C22.3676 23.2139 23.2397 22.1865 24.3454 22.1865C25.4512 22.1865 26.3423 23.212 26.3233 24.4628C26.325 25.7117 25.4512 26.7374 24.3454 26.7374ZM31.6545 26.7374C30.5678 26.7374 29.6767 25.7117 29.6767 24.4628C29.6767 23.2139 30.5488 22.1865 31.6545 22.1865C32.7602 22.1865 33.6513 23.212 33.6323 24.4628C33.6323 25.7117 32.7602 26.7374 31.6545 26.7374Z" fill="#5865F2"/>
<path d="M53.4854 30.5V17.7031H57.0977C58.2109 17.7031 59.1953 17.9492 60.0508 18.4414C60.9062 18.9336 61.5654 19.6338 62.0283 20.542C62.4971 21.4502 62.7344 22.4932 62.7402 23.6709V24.4883C62.7402 25.6953 62.5059 26.7529 62.0371 27.6611C61.5742 28.5693 60.9092 29.2666 60.042 29.7529C59.1807 30.2393 58.1758 30.4883 57.0273 30.5H53.4854ZM55.1729 19.0918V29.1201H56.9482C58.249 29.1201 59.2598 28.7158 59.9805 27.9072C60.707 27.0986 61.0703 25.9473 61.0703 24.4531V23.7061C61.0703 22.2529 60.7275 21.125 60.042 20.3223C59.3623 19.5137 58.3955 19.1035 57.1416 19.0918H55.1729ZM66.8096 30.5H65.1836V20.9902H66.8096V30.5ZM65.0518 18.4678C65.0518 18.2041 65.1309 17.9814 65.2891 17.7998C65.4531 17.6182 65.6934 17.5273 66.0098 17.5273C66.3262 17.5273 66.5664 17.6182 66.7305 17.7998C66.8945 17.9814 66.9766 18.2041 66.9766 18.4678C66.9766 18.7314 66.8945 18.9512 66.7305 19.127C66.5664 19.3027 66.3262 19.3906 66.0098 19.3906C65.6934 19.3906 65.4531 19.3027 65.2891 19.127C65.1309 18.9512 65.0518 18.7314 65.0518 18.4678ZM74.957 27.9775C74.957 27.5381 74.79 27.1982 74.4561 26.958C74.1279 26.7119 73.5508 26.501 72.7246 26.3252C71.9043 26.1494 71.251 25.9385 70.7646 25.6924C70.2842 25.4463 69.9268 25.1533 69.6924 24.8135C69.4639 24.4736 69.3496 24.0693 69.3496 23.6006C69.3496 22.8213 69.6777 22.1621 70.334 21.623C70.9961 21.084 71.8398 20.8145 72.8652 20.8145C73.9434 20.8145 74.8164 21.0928 75.4844 21.6494C76.1582 22.2061 76.4951 22.918 76.4951 23.7852H74.8604C74.8604 23.3398 74.6699 22.9561 74.2891 22.6338C73.9141 22.3115 73.4395 22.1504 72.8652 22.1504C72.2734 22.1504 71.8105 22.2793 71.4766 22.5371C71.1426 22.7949 70.9756 23.1318 70.9756 23.5479C70.9756 23.9404 71.1309 24.2363 71.4414 24.4355C71.752 24.6348 72.3115 24.8252 73.1201 25.0068C73.9346 25.1885 74.5938 25.4053 75.0977 25.6572C75.6016 25.9092 75.9736 26.2139 76.2139 26.5713C76.46 26.9229 76.583 27.3535 76.583 27.8633C76.583 28.7129 76.2432 29.3955 75.5635 29.9111C74.8838 30.4209 74.002 30.6758 72.918 30.6758C72.1562 30.6758 71.4824 30.541 70.8965 30.2715C70.3105 30.002 69.8506 29.627 69.5166 29.1465C69.1885 28.6602 69.0244 28.1357 69.0244 27.5732H70.6504C70.6797 28.1182 70.8965 28.5518 71.3008 28.874C71.7109 29.1904 72.25 29.3486 72.918 29.3486C73.5332 29.3486 74.0254 29.2256 74.3945 28.9795C74.7695 28.7275 74.957 28.3936 74.957 27.9775ZM82.5156 29.3486C83.0957 29.3486 83.6025 29.1729 84.0361 28.8213C84.4697 28.4697 84.71 28.0303 84.7568 27.5029H86.2949C86.2656 28.0479 86.0781 28.5664 85.7324 29.0586C85.3867 29.5508 84.9238 29.9434 84.3438 30.2363C83.7695 30.5293 83.1602 30.6758 82.5156 30.6758C81.2207 30.6758 80.1895 30.2451 79.4219 29.3838C78.6602 28.5166 78.2793 27.333 78.2793 25.833V25.5605C78.2793 24.6348 78.4492 23.8115 78.7891 23.0908C79.1289 22.3701 79.6152 21.8105 80.248 21.4121C80.8867 21.0137 81.6396 20.8145 82.5068 20.8145C83.5732 20.8145 84.458 21.1338 85.1611 21.7725C85.8701 22.4111 86.248 23.2402 86.2949 24.2598H84.7568C84.71 23.6445 84.4756 23.1406 84.0537 22.748C83.6377 22.3496 83.1221 22.1504 82.5068 22.1504C81.6807 22.1504 81.0391 22.4492 80.582 23.0469C80.1309 23.6387 79.9053 24.4971 79.9053 25.6221V25.9297C79.9053 27.0254 80.1309 27.8691 80.582 28.4609C81.0332 29.0527 81.6777 29.3486 82.5156 29.3486ZM87.6924 25.6572C87.6924 24.7256 87.874 23.8877 88.2373 23.1436C88.6064 22.3994 89.1162 21.8252 89.7666 21.4209C90.4229 21.0166 91.1699 20.8145 92.0078 20.8145C93.3027 20.8145 94.3486 21.2627 95.1455 22.1592C95.9482 23.0557 96.3496 24.248 96.3496 25.7363V25.8506C96.3496 26.7764 96.1709 27.6084 95.8135 28.3467C95.4619 29.0791 94.9551 29.6504 94.293 30.0605C93.6367 30.4707 92.8809 30.6758 92.0254 30.6758C90.7363 30.6758 89.6904 30.2275 88.8877 29.3311C88.0908 28.4346 87.6924 27.248 87.6924 25.7715V25.6572ZM89.3271 25.8506C89.3271 26.9053 89.5703 27.752 90.0566 28.3906C90.5488 29.0293 91.2051 29.3486 92.0254 29.3486C92.8516 29.3486 93.5078 29.0264 93.9941 28.3818C94.4805 27.7314 94.7236 26.8232 94.7236 25.6572C94.7236 24.6143 94.4746 23.7705 93.9766 23.126C93.4844 22.4756 92.8281 22.1504 92.0078 22.1504C91.2051 22.1504 90.5576 22.4697 90.0654 23.1084C89.5732 23.7471 89.3271 24.6611 89.3271 25.8506ZM102.985 22.4492C102.739 22.4082 102.473 22.3877 102.186 22.3877C101.119 22.3877 100.396 22.8418 100.015 23.75V30.5H98.3887V20.9902H99.9707L99.9971 22.0889C100.53 21.2393 101.286 20.8145 102.265 20.8145C102.581 20.8145 102.821 20.8555 102.985 20.9375V22.4492ZM103.917 25.666C103.917 24.207 104.263 23.0352 104.954 22.1504C105.646 21.2598 106.551 20.8145 107.67 20.8145C108.783 20.8145 109.665 21.1953 110.315 21.957V17H111.941V30.5H110.447L110.368 29.4805C109.718 30.2773 108.812 30.6758 107.652 30.6758C106.551 30.6758 105.651 30.2246 104.954 29.3223C104.263 28.4199 103.917 27.2422 103.917 25.7891V25.666ZM105.543 25.8506C105.543 26.9287 105.766 27.7725 106.211 28.3818C106.656 28.9912 107.271 29.2959 108.057 29.2959C109.088 29.2959 109.841 28.833 110.315 27.9072V23.5391C109.829 22.6426 109.082 22.1943 108.074 22.1943C107.277 22.1943 106.656 22.502 106.211 23.1172C105.766 23.7324 105.543 24.6436 105.543 25.8506Z" fill="#FAFAFA"/>
</svg>
