<svg width="120" height="48" viewBox="0 0 120 48" fill="none" xmlns="http://www.w3.org/2000/svg">
<rect width="120" height="48" rx="8" fill="#212121"/>
<path d="M28 36C34.6274 36 40 30.6274 40 24C40 17.3726 34.6274 12 28 12C21.3726 12 16 17.3726 16 24C16 30.6274 21.3726 36 28 36Z" fill="#FF4500"/>
<path d="M35.9828 24.1144C35.9828 23.1416 35.1962 22.369 34.2375 22.369C33.7846 22.3684 33.349 22.5427 33.0215 22.8555C31.8198 21.997 30.1745 21.4392 28.3434 21.3677L29.1444 17.6195L31.7481 18.1773C31.7769 18.8354 32.3204 19.3648 32.9929 19.3648C33.6796 19.3648 34.2375 18.807 34.2375 18.12C34.2375 17.4334 33.6796 16.8755 32.9929 16.8755C32.5066 16.8755 32.0772 17.1616 31.8769 17.5765L28.9729 16.9613C28.8871 16.9469 28.8012 16.9613 28.7439 17.0043C28.6724 17.0472 28.6295 17.1186 28.6154 17.2045L27.7281 21.3818C25.8684 21.4392 24.1945 21.997 22.9786 22.8698C22.6511 22.557 22.2154 22.3828 21.7625 22.3835C20.7897 22.3835 20.0172 23.1701 20.0172 24.1288C20.0172 24.844 20.4463 25.4448 21.0473 25.7168C21.0181 25.8917 21.0038 26.0688 21.0044 26.2461C21.0044 28.9355 24.1375 31.1245 28.0001 31.1245C31.8628 31.1245 34.9959 28.9499 34.9959 26.2461C34.9958 26.0688 34.9814 25.8918 34.953 25.7168C35.5537 25.4448 35.9828 24.8296 35.9828 24.1144ZM23.9942 25.3589C23.9942 24.6723 24.5521 24.1144 25.2391 24.1144C25.9257 24.1144 26.4836 24.6722 26.4836 25.3589C26.4836 26.0456 25.9258 26.6037 25.2391 26.6037C24.5522 26.6178 23.9942 26.0456 23.9942 25.3589ZM30.9615 28.6637C30.1031 29.5221 28.4721 29.5794 28.0001 29.5794C27.5137 29.5794 25.8828 29.5077 25.0385 28.6637C24.91 28.535 24.91 28.3346 25.0385 28.2059C25.1673 28.0774 25.3676 28.0774 25.4964 28.2059C26.0402 28.7496 27.1847 28.9355 28.0001 28.9355C28.8156 28.9355 29.9743 28.7496 30.5036 28.2059C30.6324 28.0774 30.8327 28.0774 30.9615 28.2059C31.0758 28.3346 31.0758 28.535 30.9615 28.6637ZM30.7324 26.6179C30.0457 26.6179 29.4879 26.0601 29.4879 25.3733C29.4879 24.6866 30.0457 24.1288 30.7324 24.1288C31.4193 24.1288 31.9772 24.6866 31.9772 25.3733C31.9772 26.0455 31.4193 26.6179 30.7324 26.6179Z" fill="white"/>
<path d="M58.1787 25.3232H55.1729V30.5H53.4766V17.7031H57.7129C59.1543 17.7031 60.2617 18.0312 61.0352 18.6875C61.8145 19.3438 62.2041 20.2988 62.2041 21.5527C62.2041 22.3496 61.9873 23.0439 61.5537 23.6357C61.126 24.2275 60.5283 24.6699 59.7607 24.9629L62.7666 30.3945V30.5H60.9561L58.1787 25.3232ZM55.1729 23.9434H57.7656C58.6035 23.9434 59.2686 23.7266 59.7607 23.293C60.2588 22.8594 60.5078 22.2793 60.5078 21.5527C60.5078 20.7617 60.2705 20.1553 59.7959 19.7334C59.3271 19.3115 58.6475 19.0977 57.7568 19.0918H55.1729V23.9434ZM68.2686 30.6758C66.9795 30.6758 65.9307 30.2539 65.1221 29.4102C64.3135 28.5605 63.9092 27.4268 63.9092 26.0088V25.71C63.9092 24.7666 64.0879 23.9258 64.4453 23.1875C64.8086 22.4434 65.3125 21.8633 65.957 21.4473C66.6074 21.0254 67.3105 20.8145 68.0664 20.8145C69.3027 20.8145 70.2637 21.2217 70.9492 22.0361C71.6348 22.8506 71.9775 24.0166 71.9775 25.5342V26.2109H65.5352C65.5586 27.1484 65.8311 27.9072 66.3525 28.4873C66.8799 29.0615 67.5479 29.3486 68.3564 29.3486C68.9307 29.3486 69.417 29.2314 69.8154 28.9971C70.2139 28.7627 70.5625 28.4521 70.8613 28.0654L71.8545 28.8389C71.0576 30.0635 69.8623 30.6758 68.2686 30.6758ZM68.0664 22.1504C67.4102 22.1504 66.8594 22.3906 66.4141 22.8711C65.9688 23.3457 65.6934 24.0137 65.5879 24.875H70.3516V24.752C70.3047 23.9258 70.082 23.2871 69.6836 22.8359C69.2852 22.3789 68.7461 22.1504 68.0664 22.1504ZM73.4717 25.666C73.4717 24.207 73.8174 23.0352 74.5088 22.1504C75.2002 21.2598 76.1055 20.8145 77.2246 20.8145C78.3379 20.8145 79.2197 21.1953 79.8701 21.957V17H81.4961V30.5H80.002L79.9229 29.4805C79.2725 30.2773 78.3672 30.6758 77.207 30.6758C76.1055 30.6758 75.2061 30.2246 74.5088 29.3223C73.8174 28.4199 73.4717 27.2422 73.4717 25.7891V25.666ZM75.0977 25.8506C75.0977 26.9287 75.3203 27.7725 75.7656 28.3818C76.2109 28.9912 76.8262 29.2959 77.6113 29.2959C78.6426 29.2959 79.3955 28.833 79.8701 27.9072V23.5391C79.3838 22.6426 78.6367 22.1943 77.6289 22.1943C76.832 22.1943 76.2109 22.502 75.7656 23.1172C75.3203 23.7324 75.0977 24.6436 75.0977 25.8506ZM83.6318 25.666C83.6318 24.207 83.9775 23.0352 84.6689 22.1504C85.3604 21.2598 86.2656 20.8145 87.3848 20.8145C88.498 20.8145 89.3799 21.1953 90.0303 21.957V17H91.6562V30.5H90.1621L90.083 29.4805C89.4326 30.2773 88.5273 30.6758 87.3672 30.6758C86.2656 30.6758 85.3662 30.2246 84.6689 29.3223C83.9775 28.4199 83.6318 27.2422 83.6318 25.7891V25.666ZM85.2578 25.8506C85.2578 26.9287 85.4805 27.7725 85.9258 28.3818C86.3711 28.9912 86.9863 29.2959 87.7715 29.2959C88.8027 29.2959 89.5557 28.833 90.0303 27.9072V23.5391C89.5439 22.6426 88.7969 22.1943 87.7891 22.1943C86.9922 22.1943 86.3711 22.502 85.9258 23.1172C85.4805 23.7324 85.2578 24.6436 85.2578 25.8506ZM95.9541 30.5H94.3281V20.9902H95.9541V30.5ZM94.1963 18.4678C94.1963 18.2041 94.2754 17.9814 94.4336 17.7998C94.5977 17.6182 94.8379 17.5273 95.1543 17.5273C95.4707 17.5273 95.7109 17.6182 95.875 17.7998C96.0391 17.9814 96.1211 18.2041 96.1211 18.4678C96.1211 18.7314 96.0391 18.9512 95.875 19.127C95.7109 19.3027 95.4707 19.3906 95.1543 19.3906C94.8379 19.3906 94.5977 19.3027 94.4336 19.127C94.2754 18.9512 94.1963 18.7314 94.1963 18.4678ZM100.771 18.6875V20.9902H102.546V22.2471H100.771V28.1445C100.771 28.5254 100.85 28.8125 101.008 29.0059C101.166 29.1934 101.436 29.2871 101.816 29.2871C102.004 29.2871 102.262 29.252 102.59 29.1816V30.5C102.162 30.6172 101.746 30.6758 101.342 30.6758C100.615 30.6758 100.067 30.4561 99.6982 30.0166C99.3291 29.5771 99.1445 28.9531 99.1445 28.1445V22.2471H97.4131V20.9902H99.1445V18.6875H100.771Z" fill="#FAFAFA"/>
</svg>
