<svg width="124" height="48" viewBox="0 0 124 48" fill="none" xmlns="http://www.w3.org/2000/svg">
<rect width="124" height="48" rx="8" fill="#212121"/>
<path d="M40 16.3758C39.1174 16.7663 38.157 17.0473 37.1676 17.1568C38.1948 16.5309 38.9639 15.542 39.3308 14.3758C38.367 14.9639 37.3111 15.3763 36.2101 15.5947C35.7499 15.09 35.1933 14.688 34.575 14.4136C33.9567 14.1393 33.2899 13.9985 32.6163 14C29.8906 14 27.6986 16.2663 27.6986 19.0473C27.6986 19.4379 27.7447 19.8284 27.8197 20.2042C23.7385 19.9852 20.0985 17.9852 17.6786 14.9231C17.2377 15.6956 17.0066 16.5752 17.0095 17.4704C17.0095 19.2219 17.8777 20.7663 19.2015 21.6746C18.4214 21.643 17.6594 21.4231 16.9778 21.0326V21.0947C16.9778 23.5473 18.6679 25.5799 20.9206 26.0473C20.4976 26.16 20.0625 26.2177 19.6255 26.2189C19.3054 26.2189 19.0025 26.1864 18.6968 26.142C19.3198 28.142 21.134 29.5947 23.2943 29.642C21.6041 31 19.4871 31.7988 17.1883 31.7988C16.7759 31.7988 16.3951 31.784 16 31.7367C18.1805 33.1716 20.7677 34 23.5539 34C32.599 34 37.5484 26.3136 37.5484 19.642C37.5484 19.4231 37.5484 19.2042 37.534 18.9852C38.4915 18.2663 39.3308 17.3757 40 16.3758Z" fill="#1D9BF0"/>
<path d="M62.3271 19.0918H58.2139V30.5H56.5352V19.0918H52.4307V17.7031H62.3271V19.0918ZM71.8809 28.2588L73.709 20.9902H75.335L72.5664 30.5H71.248L68.9365 23.293L66.6865 30.5H65.3682L62.6084 20.9902H64.2256L66.0977 28.1094L68.3125 20.9902H69.6221L71.8809 28.2588ZM78.7627 30.5H77.1367V20.9902H78.7627V30.5ZM77.0049 18.4678C77.0049 18.2041 77.084 17.9814 77.2422 17.7998C77.4062 17.6182 77.6465 17.5273 77.9629 17.5273C78.2793 17.5273 78.5195 17.6182 78.6836 17.7998C78.8477 17.9814 78.9297 18.2041 78.9297 18.4678C78.9297 18.7314 78.8477 18.9512 78.6836 19.127C78.5195 19.3027 78.2793 19.3906 77.9629 19.3906C77.6465 19.3906 77.4062 19.3027 77.2422 19.127C77.084 18.9512 77.0049 18.7314 77.0049 18.4678ZM83.5791 18.6875V20.9902H85.3545V22.2471H83.5791V28.1445C83.5791 28.5254 83.6582 28.8125 83.8164 29.0059C83.9746 29.1934 84.2441 29.2871 84.625 29.2871C84.8125 29.2871 85.0703 29.252 85.3984 29.1816V30.5C84.9707 30.6172 84.5547 30.6758 84.1504 30.6758C83.4238 30.6758 82.876 30.4561 82.5068 30.0166C82.1377 29.5771 81.9531 28.9531 81.9531 28.1445V22.2471H80.2217V20.9902H81.9531V18.6875H83.5791ZM89.4678 18.6875V20.9902H91.2432V22.2471H89.4678V28.1445C89.4678 28.5254 89.5469 28.8125 89.7051 29.0059C89.8633 29.1934 90.1328 29.2871 90.5137 29.2871C90.7012 29.2871 90.959 29.252 91.2871 29.1816V30.5C90.8594 30.6172 90.4434 30.6758 90.0391 30.6758C89.3125 30.6758 88.7646 30.4561 88.3955 30.0166C88.0264 29.5771 87.8418 28.9531 87.8418 28.1445V22.2471H86.1104V20.9902H87.8418V18.6875H89.4678ZM97.0967 30.6758C95.8076 30.6758 94.7588 30.2539 93.9502 29.4102C93.1416 28.5605 92.7373 27.4268 92.7373 26.0088V25.71C92.7373 24.7666 92.916 23.9258 93.2734 23.1875C93.6367 22.4434 94.1406 21.8633 94.7852 21.4473C95.4355 21.0254 96.1387 20.8145 96.8945 20.8145C98.1309 20.8145 99.0918 21.2217 99.7773 22.0361C100.463 22.8506 100.806 24.0166 100.806 25.5342V26.2109H94.3633C94.3867 27.1484 94.6592 27.9072 95.1807 28.4873C95.708 29.0615 96.376 29.3486 97.1846 29.3486C97.7588 29.3486 98.2451 29.2314 98.6436 28.9971C99.042 28.7627 99.3906 28.4521 99.6895 28.0654L100.683 28.8389C99.8857 30.0635 98.6904 30.6758 97.0967 30.6758ZM96.8945 22.1504C96.2383 22.1504 95.6875 22.3906 95.2422 22.8711C94.7969 23.3457 94.5215 24.0137 94.416 24.875H99.1797V24.752C99.1328 23.9258 98.9102 23.2871 98.5117 22.8359C98.1133 22.3789 97.5742 22.1504 96.8945 22.1504ZM107.292 22.4492C107.046 22.4082 106.779 22.3877 106.492 22.3877C105.426 22.3877 104.702 22.8418 104.321 23.75V30.5H102.695V20.9902H104.277L104.304 22.0889C104.837 21.2393 105.593 20.8145 106.571 20.8145C106.888 20.8145 107.128 20.8555 107.292 20.9375V22.4492Z" fill="#FAFAFA"/>
</svg>
